<svg width="50" height="50" viewBox="0 0 50 50" fill="none" xmlns="http://www.w3.org/2000/svg">
<circle cx="25" cy="25" r="25" fill="#9AA0D0"/>
<path d="M34.1667 18.5833V22.25L25 25.9166L15.8333 22.25V18.5833C15.8333 18.3402 15.9299 18.107 16.1018 17.9351C16.2737 17.7632 16.5069 17.6666 16.75 17.6666H33.25C33.4931 17.6666 33.7263 17.7632 33.8982 17.9351C34.0701 18.107 34.1667 18.3402 34.1667 18.5833ZM15.8333 24.2245V31.4166C15.8333 31.6597 15.9299 31.8929 16.1018 32.0648C16.2737 32.2367 16.5069 32.3333 16.75 32.3333H33.25C33.4931 32.3333 33.7263 32.2367 33.8982 32.0648C34.0701 31.8929 34.1667 31.6597 34.1667 31.4166V24.2245L25 27.8911L15.8333 24.2245Z" fill="white"/>
</svg>
