<svg width="18" height="18" viewBox="0 0 18 18" fill="none" xmlns="http://www.w3.org/2000/svg">
<circle cx="9" cy="9" r="9" fill="#D3D247"/>
<path d="M8.0708 10.084C8.0708 9.668 8.1628 9.324 8.3468 9.052C8.5388 8.78 8.8148 8.48 9.1748 8.152C9.4388 7.912 9.6308 7.712 9.7508 7.552C9.8788 7.384 9.9428 7.196 9.9428 6.988C9.9428 6.692 9.8228 6.46 9.5828 6.292C9.3508 6.116 9.0388 6.028 8.6468 6.028C8.2708 6.028 7.9348 6.108 7.6388 6.268C7.3508 6.42 7.1068 6.636 6.9068 6.916L5.4548 6.064C5.7908 5.552 6.2428 5.156 6.8108 4.876C7.3868 4.596 8.0668 4.456 8.8508 4.456C9.7708 4.456 10.5068 4.652 11.0588 5.044C11.6188 5.436 11.8988 5.98 11.8988 6.676C11.8988 7.004 11.8428 7.292 11.7308 7.54C11.6268 7.788 11.4948 8 11.3348 8.176C11.1828 8.344 10.9828 8.54 10.7348 8.764C10.4388 9.028 10.2228 9.252 10.0868 9.436C9.9508 9.612 9.8828 9.828 9.8828 10.084H8.0708ZM8.9828 13.096C8.6548 13.096 8.3788 12.992 8.1548 12.784C7.9388 12.568 7.8308 12.308 7.8308 12.004C7.8308 11.7 7.9388 11.448 8.1548 11.248C8.3708 11.04 8.6468 10.936 8.9828 10.936C9.3188 10.936 9.5948 11.04 9.8108 11.248C10.0268 11.448 10.1348 11.7 10.1348 12.004C10.1348 12.308 10.0228 12.568 9.7988 12.784C9.5828 12.992 9.3108 13.096 8.9828 13.096Z" fill="white"/>
</svg>
