<svg width="26" height="26" viewBox="0 0 26 26" fill="none" xmlns="http://www.w3.org/2000/svg">
<circle cx="13" cy="13" r="13" fill="#25BE47"/>
<g clip-path="url(#clip0_1384_1384)">
<path d="M18.4418 9.56C16.5218 6.6 12.6018 5.72 9.56178 7.56C6.60178 9.4 5.64178 13.4 7.56178 16.36L7.72178 16.6L7.08178 19L9.48178 18.36L9.72178 18.52C10.7618 19.08 11.8818 19.4 13.0018 19.4C14.2018 19.4 15.4018 19.08 16.4418 18.44C19.4018 16.52 20.2818 12.6 18.4418 9.56ZM16.7618 15.72C16.4418 16.2 16.0418 16.52 15.4818 16.6C15.1618 16.6 14.7618 16.76 13.1618 16.12C11.8018 15.48 10.6818 14.44 9.88178 13.24C9.40178 12.68 9.16178 11.96 9.08178 11.24C9.08178 10.6 9.32178 10.04 9.72178 9.64C9.88178 9.48 10.0418 9.4 10.2018 9.4H10.6018C10.7618 9.4 10.9218 9.4 11.0018 9.72C11.1618 10.12 11.5618 11.08 11.5618 11.16C11.6418 11.24 11.6418 11.4 11.5618 11.48C11.6418 11.64 11.5618 11.8 11.4818 11.88C11.4018 11.96 11.3218 12.12 11.2418 12.2C11.0818 12.28 11.0018 12.44 11.0818 12.6C11.4018 13.08 11.8018 13.56 12.2018 13.96C12.6818 14.36 13.1618 14.68 13.7218 14.92C13.8818 15 14.0418 15 14.1218 14.84C14.2018 14.68 14.6018 14.28 14.7618 14.12C14.9218 13.96 15.0018 13.96 15.1618 14.04L16.4418 14.68C16.6018 14.76 16.7618 14.84 16.8418 14.92C16.9218 15.16 16.9218 15.48 16.7618 15.72Z" fill="white"/>
</g>
<defs>
<clipPath id="clip0_1384_1384">
<rect width="16" height="16" fill="white" transform="translate(5 5)"/>
</clipPath>
</defs>
</svg>
