<svg width="26" height="26" viewBox="0 0 26 26" fill="none" xmlns="http://www.w3.org/2000/svg">
<circle cx="13" cy="13" r="13" fill="#9AA0D0"/>
<path d="M11.693 8.54407L12.1257 9.31936C12.5162 10.019 12.3594 10.9368 11.7444 11.5518C11.7444 11.5518 10.9986 12.2978 12.351 13.6503C13.703 15.0023 14.4494 14.2568 14.4494 14.2568C15.0644 13.6418 15.9822 13.4851 16.6819 13.8756L17.4572 14.3082C18.5137 14.8978 18.6384 16.3794 17.7098 17.3081C17.1518 17.8661 16.4682 18.3003 15.7126 18.3289C14.4405 18.3772 12.2802 18.0552 10.1131 15.8882C7.94606 13.7211 7.62411 11.5608 7.67234 10.2887C7.70098 9.53303 8.13517 8.84945 8.69318 8.29145C9.62181 7.36281 11.1034 7.48759 11.693 8.54407Z" fill="white"/>
</svg>
