<svg width="26" height="26" viewBox="0 0 26 26" fill="none" xmlns="http://www.w3.org/2000/svg">
<circle cx="13.0039" cy="13" r="13" fill="#25B8E7"/>
<path d="M16.7216 8.12946C16.7216 8.12946 17.7739 7.71915 17.6862 8.71562C17.657 9.12594 17.3939 10.562 17.1893 12.1154L16.4878 16.7167C16.4878 16.7167 16.4293 17.3908 15.9032 17.5081C15.3771 17.6253 14.5879 17.0978 14.4417 16.9805C14.3248 16.8926 12.2495 15.5737 11.5187 14.929C11.3141 14.7531 11.0803 14.4014 11.548 13.9911L14.6171 11.0603C14.9679 10.7086 15.3186 9.88796 13.8571 10.8844L9.76495 13.6687C9.76495 13.6687 9.29728 13.9618 8.4204 13.698L6.52046 13.1118C6.52046 13.1118 5.81894 12.6722 7.01736 12.2326C9.94035 10.8551 13.5356 9.44831 16.7216 8.12946Z" fill="white"/>
</svg>
