<svg xmlns="http://www.w3.org/2000/svg" data-name="12" viewBox="0 0 64 64" id="likee"><path fill="#d33dff" fill-rule="evenodd" d="m32,12.77c.61-.75-15.4,29.12-21.23,23.19-2.09-2.12-3.45-3.51-3.45-3.51-2.08-2.67-3.32-6.03-3.32-9.68,0-8.71,7.08-15.78,15.79-15.78,4.92,0,9.31,2.25,12.21,5.77h0Z"></path><path fill="#a75afc" fill-rule="evenodd" d="m5.42,16.23l13.35,13.24-8.33,6.15-3.12-3.17c-2.08-2.67-3.32-6.03-3.32-9.68,0-2.33.51-4.55,1.42-6.54h0Z"></path><path fill="#fa48f4" fill-rule="evenodd" d="m13.01,8.53c2.06-.98,4.36-1.53,6.78-1.53,4.92,0,9.31,2.25,12.21,5.77.44-.54-4.46,10.17-4.46,10.17l-14.53-14.41h0Z"></path><path fill="#ff7948" fill-rule="evenodd" d="m44.21,7c8.72,0,15.79,7.07,15.79,15.78,0,3.65-34.6,28.06-34.6,28.06l-9.96-10.12S40.25,7,44.21,7Z"></path><path fill="#ffbf13" fill-rule="evenodd" d="m58.52,16.1c.95,2.03,1.48,4.29,1.48,6.68,0,3.65-1.24,7.01-3.32,9.68,0,0-19.61,19.98-23.87,24.21-.22.22-.52.33-.81.33s-.59-.11-.81-.33c-1.23-1.23-3.76-3.78-6.73-6.79L58.52,16.1h0Z"></path><path fill="#ff157d" fill-rule="evenodd" d="m17.17,42.48c-2.93-2.97-5.66-5.75-7.5-7.63l24.17-23.98c2.77-2.41,6.4-3.87,10.36-3.87,2.54,0,4.93.6,7.06,1.66L17.17,42.48h0Z"></path></svg>