<svg width="70" height="70" viewBox="0 0 70 70" fill="none" xmlns="http://www.w3.org/2000/svg">
<circle opacity="0.2" cx="35" cy="35" r="34.5" stroke="#2D2E41"/>
<mask id="mask0_1244_3086" style="mask-type:alpha" maskUnits="userSpaceOnUse" x="0" y="0" width="70" height="70">
<circle cx="35" cy="35" r="35" fill="#D9D9D9"/>
</mask>
<g mask="url(#mask0_1244_3086)">
<path d="M15.4059 33.9297C16.7886 33.5542 18.0946 32.9311 19.4688 32.5299C21.5685 31.9239 23.6426 31.0277 25.7423 30.4985C26.9287 28.8597 28.1322 27.2123 29.2162 25.5052C29.2419 25.5138 29.276 25.5308 29.3187 25.5308C29.3101 25.5308 29.3101 25.5394 29.3016 25.5394L29.3357 25.5308C29.3272 25.5308 29.3272 25.5308 29.3187 25.5308C29.4211 25.4369 29.4296 25.3516 29.3528 25.2918C29.5235 25.0614 29.6857 24.8224 29.8564 24.5919C30.01 24.5578 30.1381 24.6175 30.2661 24.6858C27.4323 28.3731 24.7693 32.2738 22.3196 36.2343C26.2203 37.0622 30.1381 37.856 34.0815 38.5132C34.0815 38.6754 34.4399 38.7096 34.457 38.5645C34.8496 38.6071 35.2337 38.6413 35.6178 38.7096C35.4557 37.3866 35.6349 36.038 35.4898 34.7064C35.6434 34.6467 35.7885 34.5528 35.908 34.4333C35.9592 35.4405 36.3689 37.7963 35.8568 38.7522C36.3604 38.8461 36.9067 38.8888 37.3932 39.0424C38.1273 38.7522 38.9552 38.6413 39.7148 38.445C39.6551 38.5986 39.5868 38.7437 39.51 38.8803C39.1259 38.9827 38.7418 39.0595 38.3577 39.1278C38.2467 39.051 38.1187 38.9827 37.948 38.94C37.948 39.0254 37.948 39.1107 37.948 39.1961C37.6919 39.2729 37.4444 39.2729 37.1884 39.2046C33.1938 39.5204 28.7468 37.967 24.9144 37.1305C24.8802 37.0025 24.6925 37.0195 24.6156 37.0622C20.9113 36.2599 16.874 35.7307 13.3147 34.4333C14.6206 35.4917 15.5169 37.2159 16.4387 38.5815C17.5824 40.2886 18.7689 41.9616 19.9553 43.6345C19.9382 43.6687 19.9126 43.7028 19.8955 43.7369C19.8358 43.754 19.776 43.7625 19.7163 43.7796C18.7347 42.3201 17.591 40.98 16.5923 39.529C16.6179 39.4948 16.6265 39.4607 16.6265 39.418C16.5923 39.4265 16.5667 39.4351 16.5326 39.4436C15.9778 38.6327 12.8879 35.4149 13.0245 34.3053C12.9733 34.3053 14.8767 34.0748 15.4059 33.9297ZM29.0968 37.7621L29.0541 37.7365L29.037 37.7707L29.0968 37.7621ZM22.3281 32.0775C22.1745 32.0861 22.0977 32.1458 22.0977 32.2738C22.2001 32.2653 22.3025 32.2482 22.405 32.2397C22.4135 32.1799 22.4732 32.1031 22.3281 32.0775ZM24.701 31.2069C24.9058 31.2581 25.0851 31.2496 25.1961 31.113C25.1278 31.0874 25.0595 31.0703 24.9997 31.0447C24.8205 30.9679 24.6071 30.9679 24.701 31.2069ZM23.6341 31.9495C23.7024 32.0263 24.6156 32.5982 24.5303 32.1287C24.5047 31.9751 23.7109 31.9495 23.6341 31.9495H23.617C23.6255 31.9495 23.6255 31.9495 23.6341 31.9495ZM22.8659 34.843C22.6013 34.6979 22.3538 34.6979 22.1404 34.8515C21.9953 35.0564 23.3353 35.0905 22.8659 34.843ZM22.3538 34.3479C22.2343 34.1516 22.1062 34.1346 21.944 34.2797C22.0806 34.4504 22.2086 34.476 22.3538 34.3479ZM19.5541 33.409C19.52 33.3834 19.4858 33.3664 19.4346 33.3664C19.042 33.4859 19.6907 33.6736 19.5541 33.409ZM18.7774 34.5955C18.8286 34.5955 18.8371 34.5784 18.803 34.5528C18.7518 34.5528 18.7433 34.5699 18.7774 34.5955ZM18.4189 33.1701C18.4957 33.1957 19.042 33.2127 18.6408 33.0762C18.6067 33.0676 18.2482 33.1103 18.4189 33.1701Z" fill="#2D2E41"/>
<path d="M34.5462 18.2843C34.7169 18.1733 34.8705 18.1904 35.0071 18.3269C34.9985 18.105 36.1082 19.5816 36.1935 19.7011C36.8337 20.5888 37.4311 21.4936 38.0201 22.424C38.8139 23.6616 39.6418 24.9163 40.5039 26.1027C40.4015 26.1369 40.3076 26.1881 40.2222 26.2478C40.2052 26.2222 40.1881 26.2052 40.1796 26.1795C38.7968 24.2079 37.508 22.1679 36.0911 20.2133V20.2047C36.0057 20.0938 35.9289 19.9743 35.8436 19.8548C36.1423 19.8121 35.8179 19.6926 35.7411 19.6926C35.5533 19.3939 35.357 19.0951 35.1863 18.7879C36.2874 23.7043 36.5947 29.3206 36.6886 34.3394C36.552 34.3309 36.4154 34.3138 36.2789 34.2882C35.9972 31.3435 35.8265 28.3988 35.3912 25.4711C35.3314 28.2963 35.6387 31.352 35.8777 34.1773C35.7155 34.126 35.5619 34.0663 35.4082 34.0066C35.3997 33.9127 35.3912 33.8188 35.3826 33.7249C35.0583 29.6705 34.6059 25.6162 34.3669 21.5533C34.8022 21.8691 35.0668 21.0156 35.3058 21.0924C34.3413 20.7766 34.8449 20.9644 34.3499 21.3058C34.2986 20.4267 34.3499 19.5816 34.3925 18.7025C33.5731 20.6998 31.9002 22.552 30.6028 24.2249C30.4918 24.1566 30.3297 24.1396 30.176 24.114C31.0722 22.8934 31.9429 21.6558 32.822 20.4267C33.1805 19.9487 34.5206 18.4635 34.5462 18.2843ZM34.8364 18.472C34.862 18.4294 34.862 18.4038 34.8364 18.3952C34.8278 18.3952 34.8022 18.3952 34.7852 18.3867C34.7596 18.4635 34.7766 18.4891 34.8364 18.472Z" fill="#2D2E41"/>
<path d="M36.3144 34.4761C36.451 34.4761 36.579 34.4931 36.707 34.5273C36.707 34.8431 36.6302 38.0097 36.4424 37.9671C36.1181 37.8988 36.3656 35.0053 36.3144 34.4761Z" fill="#2D2E41"/>
<path d="M19.9427 43.6602C20.1988 44.0186 20.4634 44.3857 20.7109 44.7527C20.5829 44.7527 20.4549 44.7527 20.3354 44.7527C20.122 44.4369 19.9171 44.1125 19.7038 43.7967C19.7635 43.7797 19.8233 43.7711 19.883 43.754C19.9001 43.7199 19.9257 43.6943 19.9427 43.6602Z" fill="#2D2E41"/>
<path d="M52.9805 43.1395C52.7415 43.4382 52.511 43.7284 52.255 44.0101C51.9562 44.1296 51.538 44.7954 51.3331 45.0258C51.299 45.0002 51.2734 45.0002 51.2648 45.0088C51.2563 45.0173 51.2563 45.0514 51.2819 45.0941C50.9064 45.5124 50.5735 45.9477 50.2235 46.383C50.0272 46.4171 49.8309 46.4769 49.6431 46.5195C50.6332 45.3075 51.7855 44.232 52.75 43.0029C52.8098 43.0712 52.8866 43.1139 52.9805 43.1395Z" fill="#2D2E41"/>
<path d="M46.8939 35.1163C46.7232 35.3467 40.663 26.8625 40.3301 26.376C40.4838 26.3674 40.6203 26.4784 40.7569 26.4186C41.8068 27.8611 42.8225 29.3378 43.8809 30.7717C49.1985 32.2483 55.0111 32.5556 60.4823 33.4262C60.4823 33.4262 60.4396 33.4348 60.3543 33.4518C60.3884 33.4518 60.9518 33.4518 60.7555 33.5543C60.6445 34.9882 58.8264 36.6612 57.9558 37.6513C56.3682 39.4523 54.6868 41.1679 53.1077 42.9689C53.0138 42.9347 52.9284 42.9006 52.826 42.8835C55.4037 39.8107 58.007 36.7636 60.525 33.6482C57.7595 34.6127 54.6014 34.8687 51.7506 35.526C48.2254 36.3368 44.5893 37.233 41.1666 38.3853C41.1666 38.3341 41.1581 38.2829 41.1495 38.2402L41.2007 38.2488L41.1922 38.2146L41.1495 38.2402C41.1581 38.2914 41.1666 38.3427 41.1666 38.3853C41.0044 38.4365 40.8423 38.5134 40.6716 38.5475C40.6374 38.4451 40.5862 38.3683 40.5094 38.2914C40.5008 38.2744 40.5008 38.2488 40.5179 38.2317C40.5094 38.2232 40.5008 38.2232 40.4923 38.2232C43.07 37.4891 45.6904 36.9002 48.2596 36.1234C47.9608 36.1917 47.756 36.2429 47.756 36.2429L46.8939 35.1163ZM47.0219 32.7178C46.8597 32.7775 46.8597 32.8373 47.0219 32.9056C47.1841 32.8458 47.1841 32.7861 47.0219 32.7178ZM58.246 33.6908C58.4509 34.0237 59.0142 33.4262 58.7582 33.3665C58.6472 33.3665 58.118 33.4775 58.246 33.6908ZM56.9742 34.22C57.2132 34.203 57.2645 34.1261 57.1279 33.9896C56.9486 34.0066 56.8974 34.092 56.9742 34.22ZM51.0763 34.2456C51.2811 34.1944 51.3579 34.092 51.375 33.964C51.1701 34.0066 51.0933 34.1176 51.0763 34.2456ZM51.5286 34.6383C51.3409 34.4761 51.3238 34.4761 51.0677 34.6383C51.2214 34.6383 51.375 34.6383 51.5286 34.6383Z" fill="#2D2E41"/>
<path d="M27.9261 45.3162C28.037 45.2308 28.1565 45.3247 28.148 45.4442C28.0541 45.4357 27.9602 45.4186 27.8663 45.4101C27.8749 45.3674 27.8919 45.3418 27.9261 45.3162Z" fill="#2D2E41"/>
<path d="M34.4886 38.1208C34.3947 38.539 34.3093 38.0269 34.3008 37.9501C34.3776 37.9159 34.4544 37.8732 34.5312 37.8306C34.5227 37.9415 34.5056 38.044 34.4886 38.1208Z" fill="#2D2E41"/>
<path d="M34.2338 30.5239C34.2423 30.541 34.2594 30.5581 34.285 30.5837C34.3021 30.6434 34.3021 30.7117 34.3362 30.7715C34.3789 30.8312 34.3959 30.9166 34.4472 30.9763C34.4557 33.1528 34.6776 35.3294 34.5667 37.5059C34.4728 37.523 34.3789 37.5486 34.2935 37.5742C34.2764 37.0706 34.2935 36.567 34.285 36.072C34.3191 36.0208 34.3191 35.9781 34.285 35.9354C34.2679 34.766 34.3789 33.5711 34.2935 32.4017C34.3106 32.4017 34.3191 32.4103 34.3362 32.4103C34.3277 32.3932 34.3106 32.3847 34.2935 32.3676C34.2423 31.753 34.2082 31.1385 34.2338 30.5239Z" fill="#2D2E41"/>
<path d="M34.1061 21.135C34.6353 24.0626 34.6012 27.4256 34.4646 30.3789C34.4048 30.3703 34.3451 30.3618 34.2853 30.3874C34.2512 30.3959 34.2341 30.413 34.2171 30.4301C34.2171 29.6704 34.1146 28.9193 34.089 28.1682C34.2256 28.134 34.2427 28.0145 34.2171 27.9121C34.1744 27.9207 34.1232 27.9292 34.0805 27.9463C34.0037 25.6673 33.85 23.3883 33.8244 21.1094C33.9183 21.1521 34.0122 21.1606 34.1061 21.135ZM34.2683 24.5918C34.2768 24.5321 34.2256 24.4979 34.1402 24.4979C33.9439 24.4894 34.0976 24.6516 34.2683 24.5918Z" fill="#2D2E41"/>
<path d="M34.0312 20.7685C33.9544 20.7941 33.8947 20.8453 33.8349 20.905C33.8179 20.7514 33.8435 20.6148 33.9032 20.4697C33.963 20.5636 34.0056 20.666 34.0312 20.7685Z" fill="#2D2E41"/>
<path d="M33.3938 27.9466C33.3511 27.9124 33.3511 27.8527 33.4023 27.7759C33.3938 27.8356 33.3938 27.8868 33.3938 27.9466Z" fill="#2D2E41"/>
<path d="M33.0941 32.4705C33.2306 32.3851 33.2648 32.24 33.205 32.0522C33.1623 32.0266 33.1111 32.0096 33.0684 31.9925C33.077 30.8317 33.0514 29.6794 33.0684 28.5186C33.205 28.5954 33.2818 28.621 33.3672 28.5868C33.333 29.4489 33.4611 37.6429 33.1282 37.66C32.8721 37.6771 33.1026 32.607 33.0941 32.4705Z" fill="#2D2E41"/>
<path d="M33.1251 22.023C33.6457 21.9974 33.4153 27.2723 33.4068 27.5113C33.2958 27.4943 33.1848 27.4857 33.0739 27.4857C33.0824 27.2638 32.9629 22.0316 33.1251 22.023ZM33.1934 26.2566C33.1848 26.2481 33.1592 26.2481 33.1422 26.2396C32.9202 26.2908 33.3129 26.3676 33.1934 26.2566Z" fill="#2D2E41"/>
<path d="M32.2558 31.9492C32.2302 31.8383 32.179 31.7614 32.0936 31.7102C32.0936 31.1981 32.1534 30.703 32.1534 30.1909H32.1619C32.2473 30.1995 32.3326 30.2165 32.418 30.2336C32.4009 30.8738 32.3155 31.4968 32.307 32.137C32.307 32.137 32.2985 32.137 32.2985 32.1455C32.307 32.4528 32.3924 37.4034 32.0424 37.4119C31.829 37.4204 32.0936 32.2053 32.0936 31.9321C32.1448 31.9321 32.196 31.9407 32.2558 31.9492Z" fill="#2D2E41"/>
<path d="M32.457 28.4585C32.44 28.7487 32.4229 29.0389 32.4058 29.3376C32.3973 29.5254 32.4144 29.7132 32.4144 29.901C32.3205 29.8925 32.2266 29.8925 32.1412 29.8754C32.1156 29.4486 32.1241 29.0304 32.1412 28.6036C32.2351 28.5439 32.3461 28.5012 32.457 28.4585Z" fill="#2D2E41"/>
<path d="M32.3167 22.6885C32.8459 22.68 32.4875 28.0146 32.4789 28.1597C32.3765 28.2365 32.2741 28.2963 32.1546 28.3304C32.1546 28.2536 32.146 22.697 32.3167 22.6885Z" fill="#2D2E41"/>
<path d="M30.9407 36.0119C31.0431 35.9863 31.137 35.9522 31.2138 35.9095C31.2224 35.8668 31.1797 36.8826 31.0004 36.8826C30.8468 36.8826 30.898 36.1741 30.9065 36.0119C30.9151 36.0119 30.9322 36.0119 30.9407 36.0119Z" fill="#2D2E41"/>
<path d="M31.5309 23.7046C32.0515 23.7046 31.6504 27.9894 31.6333 28.2284C31.5394 28.143 31.4284 28.0918 31.3089 28.0747C31.3175 27.8614 31.3772 23.7046 31.5309 23.7046Z" fill="#2D2E41"/>
<path d="M31.3974 28.7145C31.4657 28.723 31.5255 28.7316 31.5938 28.7401C31.5425 29.2693 31.534 29.79 31.4999 30.3106C31.4401 30.3192 31.3974 30.3448 31.3633 30.3875C31.406 30.396 31.4486 30.4045 31.4913 30.4131C31.3974 32.1116 31.2523 33.8016 31.2267 35.5087C31.1243 35.5002 31.0219 35.5258 30.928 35.5941C30.9963 33.281 31.1328 30.9423 31.2779 28.6377C31.3206 28.6633 31.3548 28.6889 31.3974 28.7145Z" fill="#2D2E41"/>
<path d="M29.8201 36.6866C29.803 36.1659 29.8628 35.6452 29.8542 35.116C30.0506 34.9709 30.0676 34.7576 29.9055 34.4844C30.2639 31.5397 30.1188 28.5352 30.4432 25.5905C30.5541 25.5734 30.6651 25.5478 30.7761 25.5137C30.8187 26.4184 30.7505 27.289 30.6566 28.1938C30.6224 28.2023 30.5883 28.2109 30.5541 28.2194C30.5883 28.245 30.6224 28.2706 30.648 28.2877C30.5883 28.9876 30.1103 37.1902 29.9225 37.1987C29.8116 37.0877 29.7774 36.9426 29.8116 36.7805C29.8542 36.7549 29.8542 36.7207 29.8201 36.6866Z" fill="#2D2E41"/>
<path d="M30.7773 25.4539C30.6408 25.4026 30.5384 25.36 30.564 25.249C30.6152 25.1551 30.5896 25.0783 30.5042 25.0185C30.581 24.4552 30.7773 25.2575 30.7773 25.4539Z" fill="#2D2E41"/>
<path d="M29.4719 25.9658C30.095 25.9744 29.3098 33.4855 29.25 34.194C29.1732 34.1769 29.0964 34.1769 29.0196 34.1769C29.1305 33.1783 29.2671 25.9658 29.4719 25.9658Z" fill="#2D2E41"/>
<path d="M29.0129 34.8006C28.9702 34.8518 28.9702 34.8945 29.0129 34.9457C29.0726 34.9542 29.1324 34.9542 29.1836 34.9627C29.1665 35.0652 29.158 35.1676 29.158 35.27C29.1495 35.2615 29.1324 35.2444 29.1238 35.2359C29.0897 35.2785 29.1153 35.3042 29.158 35.3127C29.1665 35.7565 29.1751 36.1918 29.1238 36.6271C28.8763 36.6442 28.8678 36.7125 29.0982 36.8235C29.0897 36.8917 29.047 37.2588 28.9361 37.2588C28.6885 37.2588 28.9787 34.4933 28.9958 34.3823C29.2348 34.536 29.2433 34.5701 29.0129 34.8006Z" fill="#2D2E41"/>
<path d="M28.576 27.3574C28.7979 27.366 28.832 28.4841 28.832 28.6975C28.815 29.2523 28.0809 37.0793 27.9187 37.0793C27.859 37.0708 28.3711 27.3489 28.576 27.3574Z" fill="#2D2E41"/>
<path d="M27.0568 35.5687C27.108 35.4236 27.0653 35.3297 26.9117 35.3041C26.9373 34.5615 27.5518 28.6294 27.586 28.6294C27.8591 28.6379 27.8677 29.7305 27.8335 29.9524C27.7652 30.3962 27.1592 36.4393 26.9544 36.4308C26.758 36.4223 26.8861 35.6711 26.8946 35.5516C26.9458 35.5602 27.0056 35.5687 27.0568 35.5687Z" fill="#2D2E41"/>
<path d="M26.349 35.4491C26.349 35.4833 26.349 35.5089 26.3576 35.543C26.3832 35.7137 26.4173 36.5587 26.1613 36.5587C25.9735 36.5587 26.0759 35.5004 26.0844 35.3809C26.1783 35.4065 26.2637 35.4321 26.349 35.4491Z" fill="#2D2E41"/>
<path d="M26.598 30.2256C27.2638 30.2341 26.4956 34.4677 26.4102 34.9713C26.3249 34.9798 26.248 34.9884 26.1627 34.9969C26.1712 34.9542 26.1883 34.903 26.1968 34.8603C26.2907 34.3055 26.4444 30.2256 26.598 30.2256Z" fill="#2D2E41"/>
<path d="M25.7078 31.6167C25.9468 31.6338 26.0065 32.2483 25.9638 32.4276C25.887 32.7434 25.3066 36.3112 25.1188 36.2941C24.9993 36.2941 25.6139 31.6082 25.7078 31.6167Z" fill="#2D2E41"/>
<path d="M24.8324 32.9395C25.0373 32.9651 25.1226 33.4175 25.0714 33.5796C24.8666 34.1942 24.7215 34.8173 24.5678 35.4318C24.5252 35.4318 24.491 35.4233 24.4483 35.4233C24.4227 35.3721 24.4057 35.3294 24.3715 35.2867C24.3544 35.0648 24.7215 32.9309 24.8324 32.9395Z" fill="#2D2E41"/>
<path d="M24.4384 35.4831C24.4384 35.466 24.4469 35.4489 24.4469 35.4233C24.4896 35.4233 24.5237 35.4319 24.5664 35.4319C24.5237 35.5855 24.4981 36.4988 24.2506 36.4817C23.9689 36.4647 24.3018 35.5428 24.3274 35.466C24.3616 35.4746 24.4042 35.4831 24.4384 35.4831Z" fill="#2D2E41"/>
<path d="M23.827 34.3478C23.9123 34.2624 24.4159 34.0661 24.194 34.5014C24.0916 34.6977 23.6989 35.3037 23.7331 35.5086C23.7246 35.5086 23.7246 35.5 23.716 35.5C23.5965 35.5342 23.6989 35.5769 23.7331 35.5683C23.4343 36.6353 23.4514 36.0122 23.5538 35.3123C23.5795 35.1245 23.6819 34.4929 23.827 34.3478Z" fill="#2D2E41"/>
<path d="M37.5189 39.6914C37.5701 39.6829 38.1334 46.6393 38.1249 47.1599C38.0139 47.1514 37.9115 47.1343 37.8006 47.1258C37.7835 47.0575 37.7664 46.9807 37.7493 46.9039C37.425 45.1456 37.5701 43.2592 37.4933 41.4668C37.5445 41.4156 37.5872 41.3644 37.6384 41.3217C37.6042 41.3046 37.5274 41.2705 37.4933 41.2534C37.5104 41.0315 37.186 39.7256 37.5189 39.6914Z" fill="#2D2E41"/>
<path d="M38.782 42.6358C38.7564 43.1906 38.8589 43.7624 38.8759 44.3173C38.782 44.2746 38.7308 44.2916 38.8162 44.377C38.8333 44.3599 38.8589 44.3514 38.8759 44.3343C38.9015 45.1708 39.26 46.417 39.1064 47.2534C39.0466 47.2449 38.9869 47.2449 38.9271 47.2364C38.8503 47.151 38.7991 47.0486 38.765 46.9376C38.3382 45.5549 38.5174 43.8734 38.5687 42.4395C38.6199 42.5333 38.6967 42.6016 38.782 42.6358Z" fill="#2D2E41"/>
<path d="M38.7602 40.4595C39.0077 40.4595 38.8285 42.1751 38.8199 42.269C38.7431 42.2605 38.6663 42.2519 38.5895 42.2434C38.598 42.1666 38.6066 42.0983 38.598 42.03C38.598 41.8507 38.4529 40.4595 38.7602 40.4595Z" fill="#2D2E41"/>
<path d="M39.916 46.1956C39.9587 46.1358 39.9929 46.0676 40.0185 46.0078C40.0441 46.4346 40.0697 46.904 40.0441 47.3308C39.9673 47.3223 39.8819 47.3137 39.8051 47.3052C39.7709 47.254 39.7453 47.1942 39.7283 47.126C39.6344 46.7419 39.6515 46.4687 39.6515 46.0676C39.7197 46.1188 39.8051 46.1614 39.916 46.1956ZM39.8051 46.5797C39.7795 46.5626 39.7624 46.5541 39.7368 46.537C39.7197 46.5626 39.7112 46.5797 39.6941 46.6053C39.7368 46.5968 39.7709 46.5882 39.8051 46.5797Z" fill="#2D2E41"/>
<path d="M39.8208 41.7735C40.0427 41.7564 39.9915 45.0084 40 45.4011C39.889 45.4011 39.7781 45.3925 39.6757 45.4181C39.7183 44.6926 39.6927 43.9756 39.7354 43.2587C39.7525 43.2672 39.761 43.2672 39.7781 43.2757C39.7695 43.1477 39.7695 43.0282 39.761 42.9002H39.7525C39.761 42.7209 39.4879 41.7991 39.8208 41.7735ZM39.7525 45.1109C39.8122 45.1194 39.8634 45.1279 39.9232 45.1365C39.8805 45.0938 39.8208 45.0853 39.7525 45.1109Z" fill="#2D2E41"/>
<path d="M41.0454 42.7043C41.2929 42.6786 41.2417 45.905 41.2417 46.2294C41.199 46.1953 41.1393 46.1696 41.071 46.1526C41.0454 46.0758 41.0198 46.0075 40.96 45.9563C40.9515 45.9477 40.943 45.9392 40.9259 45.9392C40.9344 45.9477 40.943 45.9563 40.96 45.9563C41.0198 46.0075 41.0454 46.0843 41.071 46.1526C41.0369 46.255 40.9771 46.3318 40.8832 46.3916C40.8918 46.0501 40.9344 42.7213 41.0454 42.7043Z" fill="#2D2E41"/>
<path d="M41.2498 46.5625C41.2669 46.8271 41.284 47.1771 41.2498 47.4416C41.1389 47.4331 41.0279 47.4246 40.9169 47.416C40.9084 47.3563 40.8913 47.2965 40.8828 47.2453C40.8145 47.0319 40.8316 46.8698 40.8657 46.6564C41.0023 46.6052 41.0962 46.5796 41.2498 46.5625Z" fill="#2D2E41"/>
<path d="M41.9807 45.0686C41.9893 44.9149 41.8698 43.9248 42.1258 43.9077C42.2112 43.8992 42.3307 47.1939 42.3051 47.4755C42.1941 47.4755 42.0746 47.467 41.9637 47.467C41.9551 47.4329 41.938 47.3987 41.9295 47.3646C41.6564 46.8269 41.9295 45.6746 41.9807 45.0686Z" fill="#2D2E41"/>
<path d="M43.2988 44.6078C43.5805 45.0432 43.5634 46.9807 43.5549 47.4928C43.4439 47.4928 43.3244 47.4928 43.1793 47.4928C43.1708 47.4672 43.1537 47.4416 43.1367 47.4245C42.8891 47.0831 43.1708 46.1528 43.1623 45.7431C43.1537 45.5894 42.9404 44.0701 43.2988 44.6078Z" fill="#2D2E41"/>
<path d="M44.474 45.6999C44.5935 45.8621 44.5337 47.2448 44.474 47.4412C44.3374 47.4582 44.2094 47.4753 44.0728 47.4838C44.0813 47.4582 44.0899 47.4326 44.0984 47.407C44.1582 47.1083 44.2862 45.4524 44.474 45.6999Z" fill="#2D2E41"/>
<path d="M45.6381 46.3229C45.7832 46.5021 45.621 47.0228 45.6466 47.2532C45.5442 47.2703 45.4418 47.2874 45.3393 47.3044C45.3479 47.2874 45.3564 47.2788 45.3564 47.2618C45.4076 47.1679 45.382 46.007 45.6381 46.3229Z" fill="#2D2E41"/>
<path d="M36.725 40.2373C36.9127 40.2373 36.8103 41.2189 36.8274 41.3384C36.742 41.3555 36.6567 41.364 36.5713 41.3811C36.6567 41.364 36.742 41.3555 36.8274 41.3469C37.0237 43.1052 37.1005 45.2647 37.0664 47.0401C36.9896 47.0315 36.9127 47.0145 36.8359 47.0059C36.7847 46.9376 36.742 46.8523 36.725 46.7669C36.5372 46.2121 36.2811 40.2288 36.725 40.2373Z" fill="#2D2E41"/>
<path d="M35.8047 41.1425C35.7364 41.1852 35.6937 41.2364 35.6596 41.2876C35.6937 41.0316 35.7449 40.8609 35.8047 41.1425Z" fill="#2D2E41"/>
<path d="M35.6438 43.4297C35.6523 42.9602 35.5414 42.4395 35.584 41.9786C35.5926 41.9274 35.6096 41.6628 35.6352 41.4238C35.7035 41.4324 35.7718 41.4409 35.8316 41.4324C35.8401 43.2248 35.7291 45.0514 35.7889 46.8524C35.6609 46.8353 35.5243 46.8097 35.3877 46.7926C35.3877 46.7329 35.3963 46.6817 35.4048 46.6219C35.5499 45.5635 35.6267 44.4795 35.6438 43.4297Z" fill="#2D2E41"/>
<path d="M35.6523 41.2871C35.6438 41.3298 35.6438 41.3725 35.6353 41.4151C35.6182 41.4151 35.6097 41.4151 35.5926 41.4066C35.6097 41.3639 35.6267 41.3213 35.6523 41.2871Z" fill="#2D2E41"/>
<path d="M34.6229 41.4411C34.8875 41.4581 34.5631 43.1396 34.5546 43.2164C34.4778 43.225 34.401 43.242 34.3241 43.2506C34.3327 43.1908 34.3327 43.1396 34.3412 43.0799C34.3583 42.9262 34.3412 41.424 34.6229 41.4411Z" fill="#2D2E41"/>
<path d="M34.1923 44.9917C34.3545 44.8978 34.4399 44.7613 34.4655 44.582C34.4911 45.2563 34.4655 45.9392 34.4569 46.6135C34.3289 46.5879 34.2009 46.5708 34.0643 46.5452C34.0728 46.4598 34.0814 46.383 34.0899 46.2977C34.1155 45.8538 34.1411 45.427 34.1923 44.9917ZM34.3204 45.888C34.3545 45.8538 34.346 45.8453 34.2948 45.8453C34.2606 45.8709 34.2692 45.888 34.3204 45.888Z" fill="#2D2E41"/>
<path d="M34.3203 43.2504C34.3971 43.2419 34.474 43.2248 34.5508 43.2163C34.4996 43.5577 34.5166 43.9077 34.4654 44.2491C34.4227 44.1552 34.3886 44.0699 34.2947 44.0016C34.3289 43.7455 34.2947 43.498 34.3203 43.2504Z" fill="#2D2E41"/>
<path d="M33.2944 44.915C33.3883 44.9236 33.4822 44.9321 33.5761 44.9406C33.5931 45.4357 33.4992 45.9393 33.4822 46.4343C33.3541 46.4087 33.2261 46.3917 33.0981 46.3661C33.1066 46.3149 33.1151 46.2551 33.1237 46.2039C33.1834 45.7942 33.3029 45.3247 33.2944 44.915Z" fill="#2D2E41"/>
<path d="M33.5968 42.0044C33.8785 41.9959 33.6139 43.9078 33.6139 44.0615C33.5627 44.1041 33.52 44.1468 33.4688 44.198C33.3919 44.2834 33.4175 44.3431 33.5797 44.3517C33.5456 44.4712 33.5541 44.5651 33.5541 44.6931C33.5285 44.7016 33.52 44.7272 33.5285 44.7528C33.4517 44.7528 33.3663 44.7528 33.2895 44.7614C33.2895 44.4541 33.3919 42.013 33.5968 42.0044Z" fill="#2D2E41"/>
<path d="M32.3996 42.6872C32.6386 42.6957 32.4252 43.8395 32.3996 43.9334C32.3228 43.9078 32.2374 43.9163 32.1606 43.9419C32.1947 43.7883 32.1094 42.6701 32.3996 42.6872Z" fill="#2D2E41"/>
<path d="M32.1282 44.2319C32.1965 44.2746 32.2733 44.3088 32.3416 44.3514C32.427 44.9489 32.2989 45.6147 32.3075 46.2122C32.188 46.1866 32.077 46.1695 31.9575 46.1439C31.9746 45.922 32.0002 45.7086 32.0343 45.4952C32.0941 45.0769 32.077 44.6416 32.1282 44.2319Z" fill="#2D2E41"/>
<path d="M31.1599 43.5235C31.3306 43.5235 31.1855 45.6659 31.1684 45.9902C31.0745 45.9731 30.9721 45.9475 30.8697 45.9305C30.8782 45.8963 30.8782 45.8707 30.8868 45.8366C30.938 45.5464 30.8782 43.5149 31.1599 43.5235Z" fill="#2D2E41"/>
<path d="M30.1226 43.814C30.464 43.7798 30.1226 45.5211 30.1994 45.7942C30.1055 45.7771 30.0202 45.7601 29.9263 45.743C29.9348 45.6832 29.9348 45.632 29.9433 45.5723C29.9433 45.3504 29.9263 43.8396 30.1226 43.814Z" fill="#2D2E41"/>
<path d="M29.2852 45.6318C29.2083 45.6148 29.1401 45.6062 29.0632 45.5891C29.0547 45.5635 29.0632 45.5379 29.0718 45.5123C29.3705 44.232 29.1401 44.9746 29.2852 45.6318Z" fill="#2D2E41"/>
<path d="M35.0722 39.5207C35.2259 39.7511 33.5273 40.8351 33.2456 40.9802C33.1176 40.9461 33.0493 40.9717 33.0323 41.0656C33.0408 41.0741 33.0408 41.0827 33.0493 41.0912C32.6055 41.3387 29.7546 42.73 29.7717 42.7898C28.2183 43.5579 26.699 44.4115 25.1284 45.1285C24.9663 45.1114 24.7955 45.0943 24.6334 45.0858C24.9065 44.9407 25.1882 44.8127 25.4784 44.7017C26.6563 44.1469 35.0125 39.4353 35.0722 39.5207Z" fill="#2D2E41"/>
<path d="M33.1774 39.1961C33.4591 39.6912 24.0018 44.343 23.0202 44.8978C22.8495 44.8722 22.6788 44.8551 22.5081 44.8295C22.5764 44.7954 22.6447 44.7612 22.713 44.7271C23.8055 44.1296 33.1262 39.1022 33.1774 39.1961Z" fill="#2D2E41"/>
<path d="M29.293 40.2292C29.2759 40.2378 29.2588 40.2463 29.2418 40.2634C29.2161 40.2634 29.1991 40.2634 29.182 40.2634C29.2076 40.2463 29.2418 40.2378 29.2674 40.2207C29.2759 40.2207 29.2844 40.2207 29.293 40.2292Z" fill="#2D2E41"/>
<path d="M23.1198 42.7128C24.2038 42.3457 31.3309 38.7011 31.3906 38.8121C31.3309 38.9742 31.2285 39.1023 31.0748 39.2047C30.887 39.3583 30.1957 39.7339 29.2568 40.2119C29.2482 40.2033 29.2397 40.2033 29.2226 40.2033C29.1629 40.2289 29.1458 40.2545 29.1714 40.2545C26.2438 41.7312 21.0286 44.104 20.892 43.8309C20.8067 43.6602 22.9747 42.764 23.1198 42.7128Z" fill="#2D2E41"/>
<path d="M25.466 40.4165C25.4916 40.5104 25.4404 40.6043 25.3636 40.7067C25.338 40.7409 25.338 40.7665 25.338 40.7921C24.8173 41.0054 20.1057 43.182 19.9606 42.8235C19.935 42.7552 24.8002 40.7238 25.466 40.4165Z" fill="#2D2E41"/>
<path d="M28.648 38.7606C28.7505 38.7094 29.3309 38.3509 29.3906 38.4534C29.3565 38.607 29.2711 38.735 29.1346 38.8289C28.2725 39.6483 26.9836 40.1348 25.9082 40.5616C25.9338 40.4592 25.8826 40.3568 25.7801 40.2714C26.5739 39.9129 27.5555 39.5203 28.2639 38.9996C28.409 39.1362 28.8102 38.957 28.648 38.7606Z" fill="#2D2E41"/>
<path d="M21.4083 40.758C21.4168 40.758 21.4168 40.758 21.4254 40.758C21.4936 40.7154 21.5534 40.6897 21.6302 40.6641C21.8607 40.6641 22.0997 40.6641 22.3301 40.6556C22.2704 40.5873 22.1167 40.5276 22.3387 40.4678C22.3301 40.4422 22.3216 40.4166 22.3045 40.391C22.8337 40.2032 27.3148 38.0864 27.4258 38.2913C27.4087 38.4193 27.3319 38.5047 27.1953 38.5388C25.9748 39.2473 24.4981 39.5204 23.3202 40.2715C23.1495 40.2715 22.9873 40.2886 22.9361 40.4593V40.4678C22.7484 40.5532 22.5606 40.6215 22.3728 40.7068C22.2533 40.758 19.5134 42.1152 19.4451 41.9871C19.2488 41.5774 21.212 40.8519 21.4083 40.758Z" fill="#2D2E41"/>
<path d="M25.8789 37.7282C25.8533 37.8562 25.785 37.9671 25.6741 38.044C25.1449 38.522 18.5214 41.313 18.4189 41.0997C18.3763 41.0314 25.8192 37.6087 25.8789 37.7282Z" fill="#2D2E41"/>
<path d="M21.1323 38.7437C21.781 38.5047 22.4297 38.2913 23.0784 38.0438C23.2918 37.9584 24.8026 37.5231 24.1709 37.8475C23.5905 38.1633 18.051 40.3313 18.0425 40.3142C17.7864 39.7509 21.0128 38.7949 21.1323 38.7437ZM23.3174 38.1121C23.3771 38.1377 23.3942 38.1206 23.3857 38.0779C23.3174 38.0609 23.2918 38.0694 23.3174 38.1121Z" fill="#2D2E41"/>
<path d="M22.7343 36.9771C22.7343 37.088 22.7001 37.1819 22.6148 37.2673C22.2478 37.7026 21.6332 37.8733 21.1126 38.0525C20.865 38.0269 20.626 37.7879 20.4895 38.0525C20.5151 38.1037 20.5321 38.1635 20.5492 38.2232C20.1822 38.3257 17.2631 39.4523 17.1606 39.1451C17.1606 39.1536 22.7599 37.0197 22.7343 36.9771Z" fill="#2D2E41"/>
<path d="M19.6207 36.96C19.5012 37.2331 20.1413 37.1819 19.8255 36.9088C19.8255 36.9002 19.8255 36.8917 19.8255 36.8746C20.0133 36.7978 21.1827 36.3284 20.7474 36.8405C20.4401 37.1904 16.5565 38.2915 16.4796 38.0952C16.4199 37.933 19.3475 37.0624 19.6207 36.96Z" fill="#2D2E41"/>
<path d="M15.9766 36.9C16.2582 36.6781 17.1374 36.661 17.5215 36.55C17.7007 36.4988 19.2542 35.8501 18.964 36.3367C18.6567 36.8402 17.7263 36.7805 17.2398 36.8829C17.0094 36.9341 15.4559 37.3097 15.9766 36.9Z" fill="#2D2E41"/>
<path d="M16.8719 35.8331C16.6585 36.2513 14.7636 36.1745 14.9343 35.9867C15.1648 35.7392 17.0426 35.4746 16.8719 35.8331Z" fill="#2D2E41"/>
<path d="M45.7695 44.6501C45.7183 44.6672 45.6756 44.6843 45.6244 44.7014C45.5818 44.7526 45.5305 44.8123 45.4879 44.8635C44.9245 44.3429 44.3612 43.8307 43.7893 43.3272C43.8064 43.3357 43.8235 43.3357 43.8405 43.3442C43.8917 43.2674 43.9173 43.2333 43.7893 43.2333C43.7722 43.2503 43.7466 43.2759 43.7381 43.293C42.8504 42.5163 41.9713 41.7225 41.075 40.9458C41.186 40.9458 41.3055 40.9372 41.4165 40.9116C42.7565 42.2517 44.327 43.4125 45.7695 44.6501Z" fill="#2D2E41"/>
<path d="M48.3281 46.8524C48.2001 46.878 48.0635 46.9036 47.9355 46.9207C47.8501 46.8609 47.7648 46.8012 47.6794 46.7414C47.1758 46.3573 46.7235 45.9647 46.2455 45.5465C46.3735 45.4952 46.5015 45.444 46.6296 45.3843C47.2014 45.8623 47.7733 46.3488 48.3281 46.8524Z" fill="#2D2E41"/>
<path d="M40.9961 40.5449C40.9193 40.5876 40.8339 40.6558 40.7656 40.7241C40.4669 40.5363 40.1767 40.3144 39.9121 40.0754C39.9206 39.9474 39.8353 39.8706 39.656 39.845C39.5963 39.7938 39.2805 39.5206 39.3488 39.4267C39.4597 39.2646 40.8681 40.4595 40.9961 40.5449Z" fill="#2D2E41"/>
<path d="M45.6992 45.0602C45.6565 45.026 45.6139 44.9834 45.5712 44.9492C45.6395 44.9663 45.6821 45.0004 45.6992 45.0602Z" fill="#2D2E41"/>
<path d="M49.2135 46.3576C48.9489 46.7246 47.0199 44.9833 46.8406 44.8297C46.8833 44.77 46.9345 44.7102 47.0028 44.6505C46.8492 44.6249 46.6955 44.6078 46.5504 44.5822C46.0639 44.1554 40.1489 39.1792 40.2684 39C40.2598 39.0256 49.3415 46.1868 49.2135 46.3576Z" fill="#2D2E41"/>
<path d="M43.3867 39.5888C43.3952 39.6059 43.4038 39.6144 43.4208 39.6229C43.5403 39.7339 43.6598 39.8448 43.7708 39.9558C44.5731 40.6728 50.2407 45.1027 50.1553 45.2222C49.7883 45.7172 41.6711 38.6413 41.7735 38.4877C41.8844 38.3341 43.2587 39.4864 43.3867 39.5888Z" fill="#2D2E41"/>
<path d="M47.158 40.9116C47.2348 40.9628 51.1782 43.8905 51.0843 44.0271C50.7002 44.5563 46.8507 40.9884 46.5946 40.6982C46.7397 40.7665 46.8848 40.8007 47.047 40.8177C47.0812 40.8519 47.1153 40.886 47.158 40.9116Z" fill="#2D2E41"/>
<path d="M46.2812 40.1949C46.2044 40.2035 46.1276 40.2205 46.0508 40.2291C46.0508 40.2547 46.0508 40.2718 46.0508 40.2974C45.9057 40.1949 43.6182 38.522 43.7548 38.3257C43.9169 38.0696 46.1788 40.1352 46.2812 40.1949Z" fill="#2D2E41"/>
<path d="M47.1463 39.5799C47.6926 39.9896 52.0201 43.1562 51.9603 43.2501C51.5677 43.8903 47.8292 40.3822 47.5646 40.1688C47.5646 40.1603 47.5646 40.1603 47.5646 40.1518C47.556 40.1518 47.5475 40.1518 47.5475 40.1518C47.2914 39.964 44.6711 38.0521 44.8503 37.8045C45.021 37.557 47.1037 39.5458 47.1463 39.5799Z" fill="#2D2E41"/>
<path d="M48.7521 38.9741C49.1618 39.3411 52.8321 42.1151 52.6955 42.2858C52.3199 42.7467 46.9085 37.6681 46.9341 37.634C47.1048 37.395 48.718 38.9399 48.7521 38.9741Z" fill="#2D2E41"/>
<path d="M53.5888 41.1851C53.4437 41.3644 52.9828 41.0144 52.8376 40.9632C52.4536 40.8095 48.5016 37.1478 48.5699 37.054C48.6467 36.943 53.6741 41.0741 53.5888 41.1851Z" fill="#2D2E41"/>
<path d="M51.8281 37.9414C51.7172 37.9414 51.6147 37.9414 51.5038 37.9414L51.4952 37.95C51.3416 37.839 49.7625 36.7806 49.9247 36.5502C50.0613 36.3453 51.6745 37.7878 51.8281 37.9414Z" fill="#2D2E41"/>
<path d="M52.1656 38.2573C52.1912 38.2744 54.4702 39.9559 54.3677 40.0839C54.2397 40.2461 53.6508 39.9559 53.5142 39.8364C53.0533 39.4608 52.6692 38.9999 52.2168 38.6158C52.1827 38.5219 52.14 38.428 52.1058 38.3341C52.1229 38.3 52.14 38.2744 52.1656 38.2573Z" fill="#2D2E41"/>
<path d="M55.0112 39.2214C54.8917 39.3665 54.4393 39.1873 54.3113 39.0934C54.0467 38.9142 51.4007 36.4047 51.4946 36.2852C51.5799 36.1743 55.0624 39.1617 55.0112 39.2214Z" fill="#2D2E41"/>
<path d="M53.5153 36.3453C53.8141 36.4989 55.8711 38.2487 55.8711 38.2572C55.615 38.6157 55.0773 38.0609 54.9066 37.9244C54.4457 37.5232 53.8823 37.105 53.4897 36.6355C53.1312 36.2343 52.7983 35.9612 53.5153 36.3453Z" fill="#2D2E41"/>
<path d="M55.2982 36.4817C55.5884 36.7121 56.2712 37.0791 56.4419 37.4035C56.7833 38.0351 56.1005 37.6681 55.7847 37.3523C55.4945 37.0706 54.6495 36.456 54.4873 36.1317C54.0861 35.3208 55.1531 36.3707 55.2982 36.4817Z" fill="#2D2E41"/>
<path d="M56.8135 36.5247C56.694 36.5588 56.8818 36.7381 56.933 36.6271C57.3768 36.9344 57.2829 37.5062 56.8818 37.1307C56.7025 36.9771 55.4307 35.6967 55.4393 35.5175C55.4905 35.1163 56.6086 36.3454 56.8135 36.5247Z" fill="#2D2E41"/>
<path d="M57.5452 35.5348C57.5367 35.5774 57.5452 35.603 57.5794 35.6286C57.9037 36.0981 57.7672 36.4139 57.3916 35.8164C57.2038 35.364 57.1441 35.0568 57.5452 35.5348Z" fill="#2D2E41"/>
<path d="M58.1849 34.613C58.1764 34.7069 58.1337 34.8093 58.2873 34.852C58.2788 34.8776 58.2959 34.8946 58.3215 34.8946C58.9787 35.8421 58.0739 34.8434 57.9544 34.8178C57.7923 34.7666 58.0739 34.4167 58.1849 34.613Z" fill="#2D2E41"/>
<path d="M59.0642 34.5102C59.0642 34.4931 59.0728 34.4846 59.0813 34.4675C59.1069 34.4249 59.2435 34.2542 59.2776 34.2968C59.3118 34.3139 59.2862 34.4163 59.2862 34.4078L59.2947 34.4163C59.2776 34.4334 59.2606 34.459 59.2862 34.459C59.2947 34.5017 59.3288 34.3822 59.3288 34.4761C59.3288 34.4846 59.3374 34.4931 59.3459 34.4931C59.3886 34.4931 59.3459 34.5188 59.3715 34.5273C59.4569 34.5273 59.1581 34.8687 59.0898 34.7492C59.0898 34.6895 59.0984 34.6553 59.0984 34.6212C59.0472 34.5614 59.1923 34.5529 59.0642 34.5102Z" fill="#2D2E41"/>
<path d="M28.1418 45.5294C28.1759 45.5294 28.1844 45.5124 28.1503 45.4868H28.1418C28.1418 45.4697 28.1418 45.4526 28.1418 45.4355C28.449 45.4782 28.7563 45.5294 29.0636 45.5892C29.0977 45.777 28.9953 46.0074 28.9526 46.1952C29.0465 46.2123 29.1404 46.2208 29.2343 46.2379C29.2428 46.0586 29.3196 45.8111 29.277 45.6319C29.4904 45.666 29.7037 45.7087 29.9086 45.7514C29.8915 45.9562 29.8659 46.1269 29.8318 46.3403C29.9427 46.3574 30.0537 46.3744 30.1647 46.4001C30.1817 46.2037 30.2329 45.9989 30.1903 45.8026C30.4207 45.8452 30.6426 45.8879 30.8646 45.9306C30.839 46.1269 30.8048 46.3147 30.7963 46.511C30.9158 46.5366 31.0353 46.5537 31.1548 46.5793C31.1462 46.383 31.1548 46.1867 31.1633 45.9904C31.4279 46.0416 31.6925 46.0928 31.9486 46.144C31.9315 46.3403 31.9144 46.5452 31.9144 46.7329C32.0425 46.7585 32.179 46.7927 32.3071 46.8183C32.3156 46.6134 32.3071 46.4171 32.2985 46.2123C32.5631 46.272 32.8277 46.3232 33.1009 46.3659C33.0582 46.6134 33.1009 46.7756 33.135 47.0146C33.246 47.0402 33.3569 47.0744 33.4764 47.1C33.5106 46.8866 33.4764 46.6476 33.4849 46.4257C33.6813 46.4598 33.869 46.4939 34.0568 46.5281C34.0568 46.8098 34.091 47.0146 34.1592 47.2877C34.1849 47.2963 34.2105 47.3048 34.2361 47.3133C34.2105 47.3304 34.1934 47.3475 34.1934 47.3731C34.2702 47.4584 34.3556 47.4584 34.4495 47.3731C34.458 47.3731 34.4751 47.3816 34.4836 47.3816C34.5092 47.1085 34.4409 46.861 34.4495 46.5964C34.7653 46.6561 35.0811 46.7073 35.3883 46.7585C35.3798 46.9975 35.4481 47.3902 35.5591 47.5865C35.6273 47.595 35.6956 47.595 35.7639 47.6035C35.8066 47.3219 35.7981 47.0914 35.7895 46.8183C36.1395 46.8695 36.4809 46.9207 36.8308 46.9719C36.8906 47.0487 37.0613 47.228 37.0613 47.0061C37.3088 47.0402 37.5564 47.0744 37.8039 47.1C37.821 47.1853 37.9404 47.5438 38.0685 47.5267C38.1709 47.5182 38.1197 47.1938 38.1197 47.1341C38.3843 47.1597 38.6574 47.1853 38.922 47.2109C38.9647 47.2621 39.0757 47.3646 39.1013 47.228C39.3317 47.2451 39.5622 47.2621 39.8012 47.2877C39.878 47.4072 40.0316 47.5353 40.0402 47.3133C40.356 47.339 40.6462 47.3731 40.9193 47.3987C40.9449 47.5011 41.0132 47.723 41.1498 47.723C41.2437 47.723 41.2437 47.4755 41.2522 47.4243C41.4827 47.4414 41.7217 47.4499 41.9521 47.4499C42.0545 47.7487 42.2679 47.7913 42.2935 47.4584C42.5837 47.467 42.8825 47.467 43.1727 47.4755C43.1983 47.5353 43.48 47.9194 43.5226 47.6974C43.6763 47.7487 43.6336 47.7401 43.7616 47.6974C43.8299 47.6121 43.5568 47.5609 43.5312 47.5609C43.5312 47.5353 43.5397 47.5097 43.5312 47.4841C43.7104 47.4841 43.8897 47.4755 44.0689 47.467C43.9665 47.9876 44.3506 47.8511 44.4701 47.4243C44.7603 47.3902 45.0419 47.339 45.3321 47.2963C45.2383 47.5353 45.059 47.8084 45.3236 47.9876C45.409 47.9791 45.4858 47.9706 45.5711 47.962C45.5711 47.7487 45.665 47.467 45.6394 47.2451C46.3991 47.117 47.1587 47.0231 47.9184 46.9122C47.9867 46.9549 48.5244 47.3133 48.6183 47.2024C48.5671 47.0487 48.4732 46.9207 48.3195 46.8354C48.7549 46.75 49.1902 46.6305 49.6169 46.5195C49.395 46.7927 49.1646 47.0573 48.9426 47.339C49.7194 47.1085 49.745 46.9463 50.1973 46.383C50.3254 46.3915 50.4449 46.4001 50.5729 46.4086C50.8119 46.9719 47.6879 47.8682 47.3807 47.9364C47.4233 47.8596 47.4916 47.7828 47.577 47.7145C47.4233 47.6889 47.2697 47.6718 47.1161 47.6462C47.0051 47.706 46.8856 47.7657 46.7746 47.8255C46.732 47.8169 46.6893 47.8084 46.6466 47.7999L46.6381 47.7913C46.6637 47.7828 46.6807 47.7828 46.7064 47.7743C46.7576 47.6633 46.6722 47.7487 46.6893 47.6804C46.6807 47.6548 46.6893 47.6292 46.7234 47.6121C46.8344 47.1938 46.4503 47.4414 46.4503 47.4755C46.493 47.5267 46.5015 47.5694 46.5015 47.6377C46.3991 47.6718 46.2966 47.706 46.1942 47.7401C46.1345 47.8084 46.0747 47.8852 46.015 47.9535C46.1857 47.9706 46.2881 48.0303 46.2796 48.1498C42.0972 48.9265 37.8124 48.201 33.6813 47.356C33.8264 47.4755 33.1009 47.0317 32.9472 47.2024C31.3682 46.8695 29.7976 46.4513 28.21 46.1952C28.2442 46.1184 28.2015 46.0672 28.0649 46.033C28.1418 45.8794 28.1588 45.7172 28.1418 45.5294ZM45.0249 48.073C45.059 48.0901 45.0846 48.1157 45.1188 48.1242C45.2724 48.1584 45.187 47.9535 45.0249 48.073ZM42.7032 48.4315C42.7032 48.4315 42.7374 48.4144 42.7544 48.4144C42.7288 48.3547 42.6862 48.3461 42.6435 48.3803C42.6605 48.3973 42.6862 48.4144 42.7032 48.4315ZM43.1897 48.0901C42.652 48.0645 42.1143 48.0645 41.5765 48.0559C42.1143 48.0815 42.652 48.0901 43.1897 48.0901ZM40.3133 48.0815L40.3304 48.0474L40.2792 48.0559L40.3133 48.0815ZM39.8439 48.0474C39.8695 48.0645 39.9292 48.073 39.9633 48.0815C40.0743 47.9962 40.0743 47.9194 39.9548 47.8425C39.8182 47.8425 39.7841 47.9108 39.8439 48.0474ZM39.7244 48.1669C39.7414 48.1669 39.7585 48.1584 39.7756 48.1584C39.7158 48.1242 39.6988 48.1242 39.7244 48.1669ZM37.4027 47.8511C37.1637 47.6377 36.754 47.5694 36.5236 47.8767C36.8223 47.9364 37.1125 47.9194 37.4027 47.8511ZM35.0469 46.8439C34.9445 46.7073 34.8848 46.6732 34.697 46.7585C34.8165 46.7927 34.936 46.8183 35.0469 46.8439Z" fill="#2D2E41"/>
<path d="M3.57169 48.15C3.56316 48.1671 3.54609 48.1927 3.52048 48.2098C4.16064 49.0633 4.26307 48.261 4.17771 48.2183C4.11797 48.1927 4.05821 48.1671 3.99847 48.133C3.8619 48.133 3.72533 48.1415 3.58023 48.1415C5.50071 47.288 8.60761 46.2808 8.98317 46.1613C9.01731 46.3235 9.12827 46.3661 9.31605 46.2978C9.60626 46.2466 9.6404 46.1015 9.61479 45.9479C12.8753 44.898 16.887 44.7785 20.3268 44.7529C20.3951 44.8554 20.4548 44.9492 20.5146 45.0517C20.6511 45.0517 20.7792 45.0517 20.9157 45.0602C20.8389 44.9578 20.7706 44.8554 20.7023 44.7529C21.2998 44.7529 21.9058 44.7529 22.5033 44.8297C22.3241 44.9151 22.1534 45.009 21.9826 45.1114C22.1534 45.12 22.3241 45.137 22.4862 45.1541C22.6655 45.0773 22.8362 44.9919 23.0069 44.898C23.5446 44.9749 24.0824 45.0261 24.6201 45.0773C24.4579 45.1712 24.2872 45.2651 24.1165 45.3504C24.2701 45.376 24.4323 45.3931 24.586 45.4187C24.7567 45.3163 24.9274 45.2053 25.1152 45.12C26.0285 45.2053 26.9417 45.3248 27.855 45.4016C27.8038 45.5979 27.8806 45.8113 27.8465 46.0332C27.8636 46.0332 27.8892 46.0418 27.9062 46.0418C27.8465 46.0674 27.8124 46.1015 27.8038 46.1527C23.3739 45.5723 19.3537 45.2138 14.8982 45.7174C12.4742 45.9906 10.1952 46.5112 7.89063 47.3136C7.26754 47.5269 2.34259 49.6181 2.07799 49.1743C1.94996 48.9609 2.61572 48.5768 3.57169 48.15ZM27.1381 45.9223C27.2234 45.9479 27.3173 45.965 27.4112 45.9735C27.4368 45.9394 27.4112 45.6577 27.3771 45.6235C27.3771 45.615 27.3771 45.6065 27.3771 45.6065C27.3685 45.6065 27.36 45.6065 27.3514 45.615C27.2234 45.5553 27.0868 45.6748 27.0954 45.8028C27.1039 45.854 27.1125 45.8796 27.1381 45.9223ZM26.8308 45.4955C26.8479 45.5126 27.01 45.487 26.771 45.4187H26.7625C26.7881 45.4443 26.8052 45.4699 26.8308 45.4955ZM13.6947 45.5723L13.6862 45.5809C13.4899 45.1114 13.5923 46.0845 13.6947 45.5723Z" fill="#2D2E41"/>
<path d="M20.918 45.0602C20.7814 45.0602 20.6534 45.0517 20.5168 45.0517C20.4571 44.9492 20.3973 44.8468 20.329 44.7529C20.4571 44.7529 20.5766 44.7529 20.7046 44.7529C20.7729 44.8554 20.8411 44.9578 20.918 45.0602Z" fill="#2D2E41"/>
<path d="M50.0153 46.4257C50.0836 46.4087 50.1434 46.4001 50.2031 46.3916C49.7593 46.9549 49.7251 47.1171 48.9484 47.3476C49.1618 47.0659 49.4008 46.8013 49.6227 46.5282C49.7593 46.494 49.8873 46.4599 50.0153 46.4257Z" fill="#2D2E41"/>
<path d="M43.1992 48.0898C42.6615 48.0898 42.1238 48.0813 41.586 48.0557C42.0213 48.0557 42.4566 48.0642 42.8919 48.0727C43.0029 48.0813 43.1053 48.0898 43.1992 48.0898Z" fill="#2D2E41"/>
<path d="M27.8607 45.4102C27.9546 45.4187 28.0485 45.4272 28.1424 45.4443C28.1424 45.4614 28.1339 45.4784 28.1424 45.4955C28.0997 45.4955 28.0997 45.5126 28.1253 45.5382C28.1339 45.5382 28.1339 45.5382 28.1424 45.5297C28.1595 45.7089 28.1424 45.8796 28.0656 46.0503C27.9973 46.0418 27.9205 46.0418 27.8522 46.0332C27.8863 45.8199 27.8095 45.6065 27.8607 45.4102Z" fill="#2D2E41"/>
<path d="M38.0755 47.5523C37.9474 47.5608 37.8279 47.2023 37.8109 47.1255C37.9218 47.1426 38.0243 47.1511 38.1352 47.1596C38.1267 47.2194 38.1779 47.5437 38.0755 47.5523Z" fill="#2D2E41"/>
<path d="M39.0582 47.3217C39.007 47.3046 38.9643 47.279 38.9301 47.2363C38.9899 47.2449 39.0496 47.2449 39.1094 47.2534C39.1008 47.2961 39.0838 47.3217 39.0582 47.3217Z" fill="#2D2E41"/>
<path d="M39.8001 47.3047C39.8769 47.3132 39.9622 47.3218 40.0391 47.3303C40.0391 47.5608 39.8769 47.4242 39.8001 47.3047Z" fill="#2D2E41"/>
<path d="M41.1593 47.7404C41.0227 47.7404 40.9544 47.5184 40.9288 47.416C41.0398 47.4246 41.1508 47.4331 41.2617 47.4416C41.2532 47.4928 41.2532 47.7404 41.1593 47.7404Z" fill="#2D2E41"/>
<path d="M41.9476 47.4668C42.0586 47.4753 42.1781 47.4753 42.2891 47.4753C42.2635 47.8082 42.0501 47.7655 41.9476 47.4668Z" fill="#2D2E41"/>
<path d="M43.5469 47.4927C43.5469 47.5183 43.5469 47.5439 43.5469 47.5695C43.342 47.5354 43.3335 47.6463 43.5298 47.7146C43.4786 47.9365 43.1969 47.561 43.1799 47.4927C43.3164 47.5012 43.4444 47.5012 43.5469 47.4927Z" fill="#2D2E41"/>
<path d="M44.4883 47.4414C44.3688 47.8682 43.9847 48.0047 44.0871 47.4841C44.2237 47.467 44.3517 47.4585 44.4883 47.4414Z" fill="#2D2E41"/>
<path d="M45.644 47.2534C45.6696 47.4753 45.5757 47.757 45.5757 47.9704C45.4989 47.9789 45.4136 47.9875 45.3282 47.996C45.0636 47.8168 45.2343 47.5436 45.3367 47.3046C45.4392 47.2876 45.5416 47.2705 45.644 47.2534Z" fill="#2D2E41"/>
<path d="M46.7221 47.6291C46.6879 47.6462 46.6794 47.6632 46.6879 47.6974C46.6794 47.7657 46.7562 47.6803 46.705 47.7913C46.6794 47.7998 46.6623 47.7998 46.6367 47.8084C46.594 47.7571 46.5428 47.7145 46.5001 47.6632V47.6547C46.5087 47.595 46.5001 47.5523 46.4489 47.5011C46.4489 47.4584 46.833 47.2194 46.7221 47.6291Z" fill="#2D2E41"/>
<path d="M37.0664 47.0575C37.0408 47.2539 36.8701 47.0405 36.8359 46.9893C36.9128 46.9978 36.9896 47.0149 37.0664 47.0234C37.0664 47.0405 37.0664 47.049 37.0664 47.0575Z" fill="#2D2E41"/>
<path d="M35.7904 46.8693C35.8246 47.1253 35.8075 47.3558 35.7648 47.6204C35.6965 47.6119 35.6283 47.6119 35.56 47.6033C35.449 47.407 35.3807 47.0058 35.3893 46.7754C35.5258 46.801 35.6539 46.8181 35.7904 46.8351C35.7904 46.8522 35.7904 46.8607 35.7904 46.8693Z" fill="#2D2E41"/>
<path d="M34.4562 46.6559C34.4476 46.9119 34.5159 47.1424 34.4903 47.3985C34.4818 47.3985 34.4647 47.3899 34.4562 47.3899C34.5586 47.2704 34.2684 47.3046 34.2428 47.3302C34.2172 47.3216 34.1916 47.3131 34.166 47.3046C34.1062 47.0314 34.0635 46.8266 34.0635 46.5449C34.1916 46.5705 34.3281 46.5961 34.4562 46.6132C34.4562 46.6303 34.4562 46.6473 34.4562 46.6559Z" fill="#2D2E41"/>
<path d="M33.4947 46.4428V46.4513C33.4947 46.6647 33.5203 46.9037 33.4862 47.1086C33.3752 47.0744 33.2642 47.0488 33.1447 47.0232C33.1106 46.7842 33.0679 46.622 33.1106 46.3745C33.2386 46.3916 33.3667 46.4172 33.4947 46.4428Z" fill="#2D2E41"/>
<path d="M32.31 46.2123C32.31 46.2379 32.31 46.2635 32.31 46.2891C32.3185 46.4684 32.3185 46.6391 32.31 46.8183C32.182 46.7927 32.0539 46.7586 31.9174 46.733C31.9259 46.5367 31.9344 46.3318 31.9515 46.144C32.071 46.1696 32.1905 46.1867 32.31 46.2123Z" fill="#2D2E41"/>
<path d="M31.168 45.9816C31.168 46.0584 31.1594 46.1267 31.1509 46.195C31.1509 46.323 31.1509 46.4425 31.1509 46.5706C31.0314 46.545 30.9119 46.5279 30.7924 46.5023C30.8009 46.306 30.8351 46.1182 30.8607 45.9219C30.9717 45.9475 31.0655 45.9646 31.168 45.9816Z" fill="#2D2E41"/>
<path d="M30.1957 45.7939C30.2042 45.8195 30.2128 45.8366 30.2128 45.8622C30.2554 46.0243 30.1871 46.2207 30.1701 46.3914C30.0591 46.3743 29.9482 46.3572 29.8372 46.3316C29.8713 46.1268 29.8969 45.939 29.914 45.7427C30.0164 45.7597 30.1018 45.7768 30.1957 45.7939Z" fill="#2D2E41"/>
<path d="M29.067 45.5894C29.1438 45.6064 29.2121 45.615 29.2889 45.632C29.2889 45.6406 29.2889 45.6406 29.2889 45.6491C29.3316 45.8198 29.2462 46.0673 29.2377 46.238C29.1438 46.221 29.0499 46.2124 28.956 46.1954C28.9987 46.0161 29.0926 45.7771 29.067 45.5894Z" fill="#2D2E41"/>
<path d="M27.3593 45.6149C27.2142 45.6405 27.2057 45.7174 27.2228 45.8027C27.3679 45.7771 27.3764 45.7003 27.3849 45.632C27.4191 45.6661 27.4362 45.9393 27.4191 45.982C27.3252 45.9734 27.2398 45.9564 27.1459 45.9307C27.0947 45.8369 27.1033 45.7771 27.1459 45.6832C27.1801 45.6064 27.2911 45.5808 27.3593 45.6149Z" fill="#2D2E41"/>
<path d="M25.125 45.1281C25.1165 45.1281 25.1165 45.1281 25.1079 45.1367C24.9287 45.222 24.758 45.3244 24.5958 45.4269C24.4422 45.4013 24.28 45.3757 24.1264 45.3586C24.2971 45.2732 24.4592 45.1793 24.6299 45.0854C24.7921 45.094 24.9628 45.1111 25.125 45.1281Z" fill="#2D2E41"/>
<path d="M23.0195 44.8979C22.8488 44.9918 22.6781 45.0771 22.4989 45.1539C22.3282 45.1369 22.1575 45.1283 21.9953 45.1113C22.166 45.0088 22.3367 44.9149 22.5159 44.8296C22.6781 44.8467 22.8488 44.8723 23.0195 44.8979Z" fill="#2D2E41"/>
<path d="M48.625 47.211C48.5311 47.322 47.9934 46.9635 47.9251 46.9208C48.0617 46.9038 48.1897 46.8781 48.3177 46.8525C48.4799 46.9379 48.5738 47.0574 48.625 47.211Z" fill="#2D2E41"/>
<path d="M18.4259 42.2601C18.4429 42.1747 9.49778 42.0808 9.21611 42.1064C9.13929 41.9613 9.071 41.8077 8.90883 41.7053C9.77944 41.6114 10.6501 41.5175 11.5292 41.4748C11.845 41.4577 18.6136 41.526 18.4259 42.2601Z" fill="#2D2E41"/>
<path d="M8.34433 41.7656C8.31019 41.8681 8.31019 41.9705 8.31019 42.0814C8.35287 42.1156 8.38701 42.1412 8.42969 42.1753C8.31873 42.1839 8.20776 42.1924 8.0968 42.2095C8.11387 42.1753 8.13095 42.1327 8.15655 42.0814C7.96024 42.09 7.8066 42.1327 7.72125 42.2521C6.36411 42.3972 -6.81462 44.3945 -6.74633 43.1996C-6.78901 43.8483 6.8677 41.9449 8.34433 41.7656Z" fill="#2D2E41"/>
<path d="M37.2369 50.2241C37.2028 50.1729 37.1601 50.1387 37.1175 50.0961C37.9795 49.8827 39.0465 49.9936 39.9342 49.9595C39.9427 50.1387 40.028 50.2156 40.1987 50.1985C40.378 50.1046 40.1731 49.968 40.0878 49.9595C40.7536 49.968 41.4193 50.0107 42.0851 50.0192C41.8461 50.3265 42.8703 50.0705 42.8618 50.0705C42.9472 49.968 42.8447 50.0192 42.8021 50.0363C42.6911 50.0278 42.5801 50.0192 42.4692 50.0107C44.6543 49.84 51.8411 50.1814 52.0459 47.2025C52.1654 47.2281 52.2849 47.2025 52.4044 47.1172C53.2324 50.6594 43.2544 50.3436 41.2742 50.3265C41.1376 50.1899 40.9328 50.0875 40.8645 50.3265C40.5487 50.3351 36.887 50.5911 36.9382 50.1899C37.0406 50.1899 37.1345 50.1985 37.2369 50.2241ZM42.0424 50.207C42.0851 50.1814 42.0765 50.1558 42.0253 50.1473C42.0168 50.1558 42.0083 50.1729 41.9912 50.1814C42.0168 50.1899 42.0339 50.1985 42.0424 50.207Z" fill="#2D2E41"/>
<path d="M53.9376 46.0588C53.562 46.3063 52.3073 43.959 52.2561 44.0188C52.2732 44.0103 52.2988 44.0103 52.3244 44.0103C52.7682 44.0273 54.3729 45.7686 53.9376 46.0588Z" fill="#2D2E41"/>
<path d="M52.2422 44.0186C52.2166 44.0442 52.1995 44.0698 52.1739 44.0868C52.191 44.0527 52.208 44.0271 52.2422 44.0186Z" fill="#2D2E41"/>
<path d="M21.7188 48.5427C21.5139 48.5427 21.3859 48.5427 21.3603 48.5512C21.4883 48.5171 21.6078 48.5171 21.7188 48.5427Z" fill="#2D2E41"/>
<path d="M14.4385 49.541C14.4385 49.6178 14.4385 49.7032 14.4385 49.78C14.6604 49.6691 14.6689 49.6349 14.4811 49.5325C16.1797 49.1996 17.938 48.8923 19.6622 48.7045C19.628 48.7472 19.611 48.7984 19.611 48.8496C19.7134 48.8411 19.8158 48.824 19.9182 48.8155C19.9268 48.7728 19.9609 48.7131 19.9182 48.6789C20.345 48.6363 20.7632 48.6021 21.19 48.568C21.2839 48.6704 22.1204 49.1228 22.0436 48.7045C21.9497 48.6277 21.8472 48.5765 21.7363 48.5509C23.5373 48.5424 31.4325 48.6107 31.2021 49.5154C31.2192 49.4557 22.3423 48.9521 21.907 48.9691C18.527 49.1228 15.2408 49.7885 11.9205 50.3604C11.8693 50.2239 10.9389 50.3177 11.4255 50.4458C10.8194 50.5482 3.45336 51.9992 3.35946 51.3505C3.35946 51.3847 13.602 49.7032 14.4385 49.541Z" fill="#2D2E41"/>
<path d="M23.6758 46.9209C23.6758 46.9294 23.6672 46.9379 23.6672 46.9465C23.4965 47.0318 23.4283 47.0745 23.4624 47.1086C22.2077 47.066 10.4458 48.2951 10.4202 48.1926C10.352 47.9878 22.1223 46.8952 23.6758 46.9209Z" fill="#2D2E41"/>
<path d="M34.0737 48.9348C34.0652 48.9519 29.9682 47.9106 29.4902 47.8082C29.5073 47.7911 29.5244 47.7655 29.5414 47.7484C29.5244 47.6972 29.5073 47.663 29.4817 47.6289C31.846 48.0215 34.1932 48.5251 34.0737 48.9348Z" fill="#2D2E41"/>
<path d="M29.4844 47.629C29.3137 47.6034 29.143 47.5693 28.9722 47.5437L28.9637 47.5352C29.032 47.5949 29.3393 47.4498 29.4844 47.629Z" fill="#2D2E41"/>
<path d="M28.9659 47.5436C29.0512 47.6118 29.1451 47.6801 29.2305 47.7484C27.7709 47.4155 26.2431 47.279 24.7579 47.1765C24.792 47.1082 24.8262 47.04 24.8603 46.9717C24.9884 46.9802 26.9088 47.2192 28.9659 47.5436Z" fill="#2D2E41"/>
<path d="M19.0425 43.2762C19.0425 43.3018 16.2685 43.2335 15.9868 43.242C16.0978 43.1567 16.2173 43.1054 16.3709 43.0969C16.388 43.0969 16.4136 43.0969 16.4392 43.0969C16.4136 43.0969 16.3965 43.0969 16.3709 43.0969C16.2258 43.1054 16.0978 43.1652 15.9868 43.242C12.8629 43.3786 9.84132 44.0102 6.76856 44.5821C5.33461 44.8467 3.88358 45.0259 2.43256 45.1881C1.74972 45.2649 0.879107 45.2222 0.0170269 45.2052C2.81665 44.9491 5.63335 44.6162 6.33326 44.4797C6.69174 44.4114 19.1279 42.1324 19.0425 43.2762Z" fill="#2D2E41"/>
<path d="M0.015625 45.2049C-0.641604 45.2646 -1.29884 45.3244 -1.93046 45.367C-2.00728 45.3414 -2.05849 45.3414 -2.10117 45.3756C-2.16945 45.3841 -2.23773 45.3841 -2.30602 45.3926C-1.64879 45.2134 -0.820849 45.1963 0.015625 45.2049Z" fill="#2D2E41"/>
<path d="M15.451 44.5564C15.4424 44.5478 15.4339 44.5478 15.4254 44.5393C15.4424 44.5393 15.4595 44.5308 15.4766 44.5308C15.468 44.5393 15.468 44.5478 15.451 44.5564Z" fill="#2D2E41"/>
<path d="M17.0898 44.3431C17.0728 44.2577 16.4668 44.3431 15.4681 44.5394C15.4766 44.5223 15.4681 44.5138 15.434 44.4967C15.4254 44.5052 15.4169 44.5223 15.3998 44.5308C15.4084 44.5308 15.4169 44.5394 15.4169 44.5394C10.7907 45.4271 -1.99541 48.5596 -3.66836 48.3547C-3.68543 48.3547 -3.73664 48.3462 -3.79639 48.3291C-2.02955 48.3376 4.33789 46.7757 4.76466 46.6476C5.39628 46.4599 16.9618 43.5663 17.0898 44.3431Z" fill="#2D2E41"/>
<path d="M-3.28912 44.5991C-3.22084 44.5991 -3.16109 44.5991 -3.09281 44.5991C-3.05867 44.6162 -3.01599 44.6162 -2.98185 44.5991C-1.96613 44.5565 7.83256 43.4042 7.79842 43.3018C7.93498 43.7371 2.11381 44.454 1.9175 44.4711C1.90896 44.437 1.90043 44.4028 1.84921 44.3687H1.84068V44.3602C1.72118 44.3602 1.61022 44.3772 1.49072 44.4028C1.49072 44.4028 1.49072 44.4028 1.49072 44.3943C1.41391 44.3943 1.34562 44.3943 1.2688 44.3943C1.27734 44.4199 1.28587 44.454 1.29441 44.4797C1.29441 44.4882 1.29441 44.4967 1.28587 44.5053C-0.250508 44.6162 -1.80396 44.7442 -3.34034 44.7357C-3.34034 44.7186 -3.3318 44.693 -3.3318 44.676C-3.28912 44.6589 -3.26352 44.6248 -3.28912 44.5991Z" fill="#2D2E41"/>
<path d="M-5.02934 46.5114C-4.1758 46.4943 3.69389 46.2383 3.65121 46.0078C3.76217 46.5712 -4.30383 46.8016 -5.17444 46.6736C-5.09762 46.6309 -5.05495 46.5797 -5.02934 46.5114Z" fill="#2D2E41"/>
<path d="M5.33305 50.1558C5.32451 50.1899 5.33305 50.2411 5.36719 50.3009C3.71985 50.4118 2.07251 50.4801 0.425168 50.4972C0.322743 50.4289 0.228853 50.4289 0.126428 50.4972C-0.249132 50.4886 -0.6503 50.4886 -1.01732 50.4204C-1.04293 50.4118 0.672696 50.2923 1.19336 50.2838C2.5761 50.2838 3.95031 50.2667 5.33305 50.1558Z" fill="#2D2E41"/>
<path d="M5.98983 50.1301C6.49342 50.113 14.9435 48.7985 14.9435 48.8156C15.0886 49.3107 6.4422 50.2922 5.85326 50.2922C5.92154 50.2581 5.96422 50.1983 5.98983 50.1301Z" fill="#2D2E41"/>
<path d="M46.4864 48.662C46.5803 48.7217 46.6827 48.7047 46.7851 48.6279C48.569 48.3803 52.5209 47.6634 51.2662 45.1027C51.2833 45.0856 51.3004 45.06 51.3174 45.043C51.7357 45.2905 51.8381 45.9904 51.7101 46.4257C51.582 46.5025 51.5479 46.5879 51.6162 46.6903C50.9846 48.2352 48.9873 48.3974 47.5618 48.6279C47.2631 48.6791 43.5843 49.3619 43.5331 49.0632C43.516 48.9266 46.4522 48.662 46.4864 48.662Z" fill="#2D2E41"/>
<path d="M51.3203 45.0344C51.3032 45.0515 51.2862 45.0771 51.2691 45.0941C51.252 45.0515 51.2435 45.0259 51.252 45.0088C51.2606 45.0088 51.2862 45.0088 51.3203 45.0344Z" fill="#2D2E41"/>
<path d="M45.9719 50.8728C45.7329 50.8984 45.4939 50.9325 45.255 50.9325C45.4171 50.9325 45.6647 50.9069 45.9805 50.8643C45.9719 50.8643 45.9719 50.8728 45.9719 50.8728Z" fill="#2D2E41"/>
<path d="M46.3594 50.8046C46.2228 50.8217 46.0948 50.8473 45.9753 50.8644C46.0265 50.6851 46.2143 50.7534 46.3594 50.8046Z" fill="#2D2E41"/>
<path d="M52.895 48.5338C53.0401 48.5167 53.1596 48.4228 53.3047 48.4058C51.7768 50.5994 48.7553 50.5055 46.3995 50.8213C46.391 50.8213 46.3739 50.8128 46.3654 50.8042C47.2104 50.6762 48.2688 50.4884 48.8321 50.4116C50.2831 50.2153 51.9561 49.7373 52.895 48.5338Z" fill="#2D2E41"/>
<path d="M53.3945 48.2524C53.3433 48.2353 53.2836 48.2438 53.2238 48.2438C53.1982 48.2182 53.1641 48.2012 53.1385 48.1756C53.3775 47.7573 52.9763 46.2892 52.9336 46.3404C53.2409 45.9734 53.625 47.8427 53.3945 48.2524Z" fill="#2D2E41"/>
<path d="M34.4034 51.3677C34.4119 51.4274 34.4204 51.4872 34.4375 51.5384C33.6096 51.564 26.0472 52.3663 26.0472 52.3578C25.9533 52.1017 33.3535 51.4189 34.4034 51.3677Z" fill="#2D2E41"/>
<path d="M40.2842 51.2309C40.8305 51.2224 41.3682 51.1797 41.9059 51.1712C41.8974 51.1712 41.8974 51.1712 41.8889 51.1712C42.0169 51.1456 43.246 51.137 43.246 51.2053C43.2801 51.5296 35.0605 51.5211 34.7447 51.5296C34.7191 51.4443 34.6508 51.3845 34.5313 51.3589C36.4006 51.2736 38.2698 51.2565 40.1391 51.2309C40.1732 51.2821 40.2159 51.2821 40.2842 51.2309Z" fill="#2D2E41"/>
<path d="M28.0117 50.6934C27.969 50.736 27.9434 50.7872 27.9434 50.847C27.6191 50.8897 23.0953 51.803 23.0441 51.6493C22.9843 51.4616 27.6703 50.736 28.0117 50.6934Z" fill="#2D2E41"/>
<path d="M35.5312 50.2835C35.5398 50.4969 28.8907 50.7871 28.6858 50.8041C28.6943 50.7529 28.6858 50.6846 28.6517 50.642C28.7456 50.6334 35.5227 49.9591 35.5312 50.2835Z" fill="#2D2E41"/>
<path d="M56.1305 45.9647C55.994 46.0245 55.7977 45.666 55.7123 45.5806C55.7464 45.5977 55.772 45.6233 55.8062 45.6404C55.8318 45.4355 55.6952 45.3246 55.5074 45.2392C54.9526 44.1467 54.0223 43.6345 52.981 43.1395C53.0236 43.0883 53.0663 43.0371 53.109 42.9858C53.5443 43.1565 56.7195 45.7086 56.1305 45.9647Z" fill="#2D2E41"/>
<path d="M52.8242 42.9007C52.7901 42.9348 52.7645 42.9775 52.7303 43.0116C52.645 42.9263 52.7645 42.8922 52.8242 42.9007Z" fill="#2D2E41"/>
<path d="M53.1094 42.9857C53.0667 43.037 53.0155 43.0882 52.9813 43.1394C52.896 43.1138 52.8106 43.0711 52.7424 43.0114C52.768 42.9772 52.8021 42.9345 52.8362 42.9004C52.9301 42.9175 53.0155 42.9431 53.1094 42.9857Z" fill="#2D2E41"/>
<path d="M54.6255 45.4186C54.6426 45.393 54.6511 45.3674 54.6596 45.3418C54.6682 45.3418 54.6852 45.3418 54.6938 45.3418C56.4009 45.6149 54.4206 49.012 54.2414 48.8925C54.1646 48.8413 54.9413 47.5866 54.9925 47.3903C55.2144 46.5794 54.9498 46.1015 54.6255 45.4186Z" fill="#2D2E41"/>
<path d="M58.0005 46.067C57.881 46.0841 57.6847 45.5549 57.6164 45.4525C57.6334 45.4439 57.642 45.4269 57.6591 45.4183C57.6334 45.3927 57.6078 45.3927 57.5908 45.4098C57.164 44.5733 56.7031 43.899 55.9605 43.3101C55.8154 43.1991 54.0571 42.3114 54.1168 42.1663C54.518 41.2872 58.8967 45.9305 58.0005 46.067Z" fill="#2D2E41"/>
</g>
</svg>
