<svg width="70" height="70" viewBox="0 0 70 70" fill="none" xmlns="http://www.w3.org/2000/svg">
<circle opacity="0.8" cx="35" cy="35" r="34.5" stroke="white"/>
<mask id="mask0_1244_2904" style="mask-type:alpha" maskUnits="userSpaceOnUse" x="0" y="0" width="70" height="70">
<circle cx="35" cy="35" r="35" fill="#D9D9D9"/>
</mask>
<g mask="url(#mask0_1244_2904)">
<path d="M9.99571 34.7541C11.5575 34.3299 13.0326 33.6261 14.5848 33.1729C16.9565 32.4884 19.2992 31.4761 21.6709 30.8784C23.011 29.0273 24.3704 27.1666 25.5948 25.2384C25.6237 25.2481 25.6622 25.2674 25.7105 25.2674C25.7008 25.2674 25.7008 25.277 25.6912 25.277L25.7297 25.2674C25.7201 25.2674 25.7201 25.2674 25.7105 25.2674C25.8261 25.1613 25.8358 25.0649 25.749 24.9974C25.9418 24.7371 26.125 24.4672 26.3178 24.2069C26.4914 24.1683 26.636 24.2358 26.7806 24.3129C23.5798 28.4778 20.5718 32.8837 17.8049 37.3571C22.2108 38.2923 26.636 39.1889 31.0901 39.9312C31.0901 40.1144 31.495 40.153 31.5143 39.9891C31.9578 40.0373 32.3916 40.0759 32.8255 40.153C32.6423 38.6586 32.8448 37.1354 32.6809 35.6314C32.8544 35.5639 33.0183 35.4578 33.1533 35.3229C33.2111 36.4605 33.6739 39.1214 33.0954 40.2012C33.6642 40.3072 34.2813 40.3554 34.8308 40.529C35.6599 40.2012 36.5951 40.0759 37.4531 39.8541C37.3856 40.0277 37.3085 40.1916 37.2217 40.3458C36.7879 40.4615 36.3541 40.5483 35.9202 40.6254C35.7949 40.5386 35.6503 40.4615 35.4574 40.4133C35.4574 40.5097 35.4574 40.6061 35.4574 40.7025C35.1682 40.7893 34.8886 40.7893 34.5994 40.7122C30.0874 41.0689 25.0645 39.3142 20.7357 38.3694C20.6972 38.2248 20.4851 38.2441 20.3983 38.2923C16.2141 37.386 11.654 36.7883 7.63368 35.3229C9.10874 36.5184 10.121 38.4658 11.1623 40.0084C12.4541 41.9366 13.7942 43.8262 15.1343 45.7158C15.1151 45.7544 15.0861 45.7929 15.0668 45.8315C14.9994 45.8508 14.9319 45.8604 14.8644 45.8797C13.7557 44.2311 12.4638 42.7175 11.3358 41.0785C11.3647 41.04 11.3744 41.0014 11.3744 40.9532C11.3358 40.9628 11.3069 40.9725 11.2683 40.9821C10.6417 40.0662 7.15163 36.4316 7.30588 35.1783C7.24804 35.1783 9.39797 34.918 9.99571 34.7541ZM25.4598 39.0828L25.4116 39.0539L25.3923 39.0925L25.4598 39.0828ZM17.8145 32.662C17.641 32.6716 17.5542 32.7391 17.5542 32.8837C17.6699 32.8741 17.7856 32.8548 17.9013 32.8452C17.9109 32.7777 17.9784 32.6909 17.8145 32.662ZM20.4947 31.6786C20.7261 31.7364 20.9285 31.7268 21.0539 31.5725C20.9767 31.5436 20.8996 31.5243 20.8321 31.4954C20.6297 31.4087 20.3886 31.4086 20.4947 31.6786ZM19.2896 32.5174C19.3667 32.6041 20.3983 33.2501 20.3019 32.7198C20.273 32.5463 19.3764 32.5174 19.2896 32.5174H19.2703C19.2799 32.5174 19.2799 32.5174 19.2896 32.5174ZM18.4219 35.7856C18.123 35.6217 17.8434 35.6217 17.6024 35.7953C17.4385 36.0267 18.9521 36.0652 18.4219 35.7856ZM17.8434 35.2265C17.7085 35.0047 17.5639 34.9854 17.3807 35.1493C17.5349 35.3422 17.6795 35.3711 17.8434 35.2265ZM14.6812 34.166C14.6426 34.137 14.6041 34.1178 14.5462 34.1178C14.1028 34.2527 14.8355 34.4648 14.6812 34.166ZM13.8039 35.5061C13.8617 35.5061 13.8714 35.4868 13.8328 35.4578C13.775 35.4578 13.7653 35.4771 13.8039 35.5061ZM13.399 33.896C13.4857 33.9249 14.1028 33.9442 13.6496 33.79C13.6111 33.7803 13.2061 33.8285 13.399 33.896Z" fill="white"/>
<path d="M31.6144 17.0823C31.8072 16.9569 31.9807 16.9762 32.135 17.1305C32.1253 16.8798 33.3787 18.5477 33.4751 18.6827C34.1981 19.6853 34.873 20.7073 35.5382 21.7581C36.4348 23.1561 37.37 24.5733 38.3438 25.9134C38.2281 25.9519 38.122 26.0098 38.0256 26.0773C38.0063 26.0484 37.987 26.0291 37.9774 26.0001C36.4156 23.7731 34.9598 21.4689 33.3594 19.2611V19.2515C33.263 19.1261 33.1762 18.9912 33.0798 18.8562C33.4172 18.808 33.0509 18.673 32.9641 18.673C32.752 18.3356 32.5303 17.9982 32.3374 17.6511C33.5811 23.2043 33.9282 29.548 34.0342 35.2169C33.88 35.2073 33.7257 35.188 33.5715 35.159C33.2533 31.8329 33.0605 28.5068 32.5688 25.1999C32.5013 28.3911 32.8484 31.8426 33.1184 35.0337C32.9352 34.9759 32.7616 34.9084 32.5881 34.8409C32.5785 34.7348 32.5688 34.6288 32.5592 34.5227C32.1928 29.9433 31.6819 25.3638 31.4119 20.7748C31.9036 21.1315 32.2025 20.1674 32.4724 20.2541C31.383 19.8974 31.9518 20.1095 31.3926 20.4952C31.3348 19.5021 31.3926 18.5477 31.4408 17.5547C30.5153 19.8107 28.6257 21.9027 27.1602 23.7924C27.0349 23.7152 26.8517 23.696 26.6782 23.667C27.6905 22.2884 28.6739 20.8904 29.6669 19.5021C30.0718 18.9623 31.5854 17.2847 31.6144 17.0823ZM31.9422 17.2944C31.9711 17.2462 31.9711 17.2172 31.9422 17.2076C31.9325 17.2076 31.9036 17.2076 31.8843 17.198C31.8554 17.2847 31.8747 17.3137 31.9422 17.2944Z" fill="white"/>
<path d="M33.6112 35.3711C33.7655 35.3711 33.9101 35.3904 34.0547 35.4289C34.0547 35.7857 33.9679 39.3624 33.7558 39.3142C33.3895 39.2371 33.6691 35.9688 33.6112 35.3711Z" fill="white"/>
<path d="M15.1206 45.7446C15.4098 46.1495 15.7087 46.5641 15.9883 46.9787C15.8437 46.9787 15.6991 46.9787 15.5641 46.9787C15.3231 46.622 15.0917 46.2556 14.8507 45.8989C14.9181 45.8796 14.9856 45.87 15.0531 45.8507C15.0724 45.8121 15.1013 45.7832 15.1206 45.7446Z" fill="white"/>
<path d="M52.4375 45.1568C52.1676 45.4943 51.9072 45.822 51.618 46.1402C51.2806 46.2752 50.8082 47.0272 50.5768 47.2875C50.5382 47.2585 50.5093 47.2585 50.4997 47.2682C50.49 47.2778 50.49 47.3164 50.519 47.3646C50.0947 47.837 49.7188 48.3287 49.3235 48.8204C49.1017 48.8589 48.88 48.9264 48.6679 48.9746C49.7862 47.6056 51.0878 46.3909 52.1772 45.0026C52.2447 45.0797 52.3314 45.1279 52.4375 45.1568Z" fill="white"/>
<path d="M45.5619 36.0945C45.3691 36.3548 38.524 26.7717 38.148 26.2222C38.3216 26.2126 38.4758 26.3379 38.6301 26.2704C39.8159 27.8997 40.9632 29.5676 42.1587 31.1873C48.165 32.8552 54.7305 33.2023 60.9103 34.1856C60.9103 34.1856 60.8621 34.1953 60.7657 34.2146C60.8043 34.2146 61.4406 34.2146 61.2188 34.3302C61.0935 35.9499 59.04 37.8396 58.0566 38.9579C56.2634 40.9921 54.3641 42.93 52.5805 44.9642C52.4745 44.9256 52.3781 44.8871 52.2624 44.8678C55.174 41.3971 58.1145 37.9552 60.9585 34.4363C57.8349 35.5257 54.2677 35.815 51.0476 36.5573C47.0659 37.4732 42.9589 38.4855 39.0929 39.787C39.0929 39.7292 39.0832 39.6713 39.0736 39.6231L39.1314 39.6328L39.1218 39.5942L39.0736 39.6231C39.0832 39.681 39.0929 39.7388 39.0929 39.787C38.9097 39.8449 38.7265 39.9316 38.5337 39.9702C38.4951 39.8545 38.4373 39.7677 38.3505 39.681C38.3409 39.6617 38.3409 39.6328 38.3601 39.6135C38.3505 39.6038 38.3409 39.6038 38.3312 39.6038C41.2428 38.7747 44.2026 38.1095 47.1045 37.2322C46.7671 37.3093 46.5357 37.3671 46.5357 37.3671L45.5619 36.0945ZM45.7066 33.3854C45.5234 33.4529 45.5234 33.5204 45.7066 33.5975C45.8897 33.5301 45.8897 33.4626 45.7066 33.3854ZM58.3844 34.4845C58.6158 34.8605 59.2521 34.1856 58.9629 34.1181C58.8375 34.1181 58.2398 34.2435 58.3844 34.4845ZM56.9479 35.0822C57.2178 35.063 57.2757 34.9762 57.1214 34.8219C56.919 34.8412 56.8611 34.9376 56.9479 35.0822ZM50.286 35.1112C50.5174 35.0533 50.6042 34.9376 50.6234 34.793C50.3921 34.8412 50.3053 34.9666 50.286 35.1112ZM50.797 35.5546C50.5849 35.3715 50.5656 35.3715 50.2764 35.5546C50.4499 35.5546 50.6234 35.5546 50.797 35.5546Z" fill="white"/>
<path d="M24.1395 47.6152C24.2648 47.5188 24.3998 47.6249 24.3901 47.7598C24.2841 47.7502 24.178 47.7309 24.072 47.7213C24.0816 47.6731 24.1009 47.6442 24.1395 47.6152Z" fill="white"/>
<path d="M31.5495 39.4879C31.4434 39.9604 31.347 39.3819 31.3374 39.2951C31.4241 39.2566 31.5109 39.2084 31.5977 39.1602C31.588 39.2855 31.5687 39.4012 31.5495 39.4879Z" fill="white"/>
<path d="M31.2609 30.9072C31.2705 30.9265 31.2898 30.9458 31.3187 30.9747C31.338 31.0422 31.338 31.1193 31.3766 31.1868C31.4248 31.2543 31.444 31.3507 31.5019 31.4182C31.5115 33.8766 31.7622 36.3351 31.6369 38.7935C31.5308 38.8128 31.4248 38.8417 31.3283 38.8707C31.3091 38.3018 31.3283 37.733 31.3187 37.1738C31.3573 37.116 31.3573 37.0678 31.3187 37.0196C31.2994 35.6988 31.4248 34.349 31.3283 33.0282C31.3476 33.0282 31.3573 33.0379 31.3766 33.0379C31.3669 33.0186 31.3476 33.009 31.3283 32.9897C31.2705 32.2955 31.2319 31.6014 31.2609 30.9072Z" fill="white"/>
<path d="M31.1188 20.3022C31.7166 23.6091 31.678 27.4076 31.5237 30.7434C31.4563 30.7337 31.3888 30.7241 31.3213 30.753C31.2827 30.7627 31.2634 30.7819 31.2442 30.8012C31.2442 29.9432 31.1285 29.0948 31.0995 28.2464C31.2538 28.2078 31.2731 28.0728 31.2442 27.9572C31.1959 27.9668 31.1381 27.9764 31.0899 27.9957C31.0031 25.4216 30.8296 22.8474 30.8007 20.2733C30.9067 20.3215 31.0128 20.3312 31.1188 20.3022ZM31.302 24.2068C31.3116 24.1393 31.2538 24.1008 31.1574 24.1008C30.9356 24.0911 31.1092 24.2743 31.302 24.2068Z" fill="white"/>
<path d="M31.0312 19.888C30.9445 19.9169 30.877 19.9747 30.8095 20.0422C30.7902 19.8687 30.8191 19.7144 30.8866 19.5505C30.9541 19.6566 31.0023 19.7723 31.0312 19.888Z" fill="white"/>
<path d="M30.3146 27.9959C30.2664 27.9574 30.2664 27.8899 30.3242 27.8031C30.3146 27.8706 30.3146 27.9284 30.3146 27.9959Z" fill="white"/>
<path d="M29.9727 33.1057C30.127 33.0093 30.1656 32.8454 30.0981 32.6333C30.0499 32.6044 29.992 32.5851 29.9438 32.5658C29.9535 31.2547 29.9245 29.9531 29.9438 28.642C30.0981 28.7287 30.1848 28.7577 30.2812 28.7191C30.2427 29.6928 30.3873 38.9481 30.0113 38.9674C29.7221 38.9867 29.9824 33.26 29.9727 33.1057Z" fill="white"/>
<path d="M30.0108 21.3052C30.5989 21.2762 30.3386 27.2343 30.3289 27.5043C30.2036 27.485 30.0783 27.4754 29.9529 27.4754C29.9626 27.2247 29.8276 21.3148 30.0108 21.3052ZM30.0879 26.0871C30.0782 26.0774 30.0493 26.0774 30.03 26.0678C29.7794 26.1256 30.2229 26.2124 30.0879 26.0871Z" fill="white"/>
<path d="M29.0278 32.5173C28.9988 32.392 28.941 32.3052 28.8446 32.2473C28.8446 31.6689 28.9121 31.1097 28.9121 30.5312H28.9217C29.0181 30.5409 29.1145 30.5602 29.2109 30.5795C29.1917 31.3025 29.0952 32.0063 29.0856 32.7294C29.0856 32.7294 29.076 32.7294 29.076 32.739C29.0856 33.0861 29.182 38.6779 28.7867 38.6875C28.5457 38.6971 28.8446 32.8065 28.8446 32.498C28.9024 32.498 28.9603 32.5076 29.0278 32.5173Z" fill="white"/>
<path d="M29.2539 28.5742C29.2346 28.902 29.2153 29.2298 29.1961 29.5672C29.1864 29.7793 29.2057 29.9914 29.2057 30.2035C29.0997 30.1939 28.9936 30.1939 28.8972 30.1746C28.8683 29.6926 28.8779 29.2202 28.8972 28.7381C29.0032 28.6706 29.1286 28.6224 29.2539 28.5742Z" fill="white"/>
<path d="M29.0997 22.0569C29.6974 22.0473 29.2925 28.0728 29.2828 28.2367C29.1671 28.3235 29.0515 28.391 28.9165 28.4296C28.9165 28.3428 28.9068 22.0665 29.0997 22.0569Z" fill="white"/>
<path d="M27.5458 37.1063C27.6615 37.0774 27.7675 37.0388 27.8543 36.9906C27.864 36.9424 27.8158 38.0897 27.6133 38.0897C27.4398 38.0897 27.4976 37.2895 27.5072 37.1063C27.5169 37.1063 27.5362 37.1063 27.5458 37.1063Z" fill="white"/>
<path d="M28.2113 23.2045C28.7994 23.2045 28.3462 28.0442 28.3269 28.3142C28.2209 28.2178 28.0956 28.1599 27.9606 28.1406C27.9702 27.8996 28.0377 23.2045 28.2113 23.2045Z" fill="white"/>
<path d="M28.0595 28.8633C28.1366 28.8729 28.2041 28.8825 28.2812 28.8922C28.2234 29.4899 28.2138 30.078 28.1752 30.6661C28.1077 30.6758 28.0595 30.7047 28.0209 30.7529C28.0692 30.7625 28.1174 30.7722 28.1656 30.7818C28.0595 32.7004 27.8956 34.6093 27.8667 36.5375C27.751 36.5278 27.6353 36.5567 27.5293 36.6339C27.6064 34.0212 27.7606 31.3795 27.9245 28.7765C27.9727 28.8054 28.0113 28.8343 28.0595 28.8633Z" fill="white"/>
<path d="M26.2766 37.8683C26.2573 37.2802 26.3248 36.6921 26.3152 36.0944C26.5369 35.9305 26.5562 35.6894 26.373 35.3809C26.778 32.0548 26.6141 28.6612 26.9804 25.3351C27.1057 25.3158 27.2311 25.2869 27.3564 25.2483C27.4046 26.2702 27.3275 27.2536 27.2214 28.2755C27.1829 28.2852 27.1443 28.2948 27.1058 28.3045C27.1443 28.3334 27.1829 28.3623 27.2118 28.3816C27.1443 29.1722 26.6044 38.4371 26.3923 38.4467C26.267 38.3214 26.2284 38.1575 26.267 37.9743C26.3152 37.9454 26.3152 37.9069 26.2766 37.8683Z" fill="white"/>
<path d="M27.3594 25.1804C27.2051 25.1226 27.0894 25.0744 27.1184 24.9491C27.1762 24.843 27.1473 24.7562 27.0509 24.6888C27.1376 24.0524 27.3594 24.9587 27.3594 25.1804Z" fill="white"/>
<path d="M25.8824 25.759C26.5862 25.7687 25.6992 34.2527 25.6317 35.0529C25.545 35.0336 25.4582 35.0336 25.3714 35.0336C25.4968 33.9056 25.651 25.759 25.8824 25.759Z" fill="white"/>
<path d="M25.3658 35.7377C25.3176 35.7955 25.3176 35.8437 25.3658 35.9016C25.4333 35.9112 25.5007 35.9112 25.5586 35.9208C25.5393 36.0365 25.5297 36.1522 25.5297 36.2679C25.52 36.2583 25.5007 36.239 25.4911 36.2294C25.4525 36.2776 25.4815 36.3065 25.5297 36.3161C25.5393 36.8175 25.549 37.3091 25.4911 37.8008C25.2115 37.8201 25.2019 37.8972 25.4622 38.0226C25.4525 38.0997 25.4043 38.5143 25.279 38.5143C24.9994 38.5143 25.3272 35.3906 25.3465 35.2653C25.6164 35.4388 25.6261 35.4774 25.3658 35.7377Z" fill="white"/>
<path d="M24.8709 27.3306C25.1216 27.3402 25.1602 28.6032 25.1602 28.8442C25.1409 29.4709 24.3118 38.3116 24.1286 38.3116C24.0611 38.302 24.6395 27.3209 24.8709 27.3306Z" fill="white"/>
<path d="M23.1536 36.6052C23.2114 36.4413 23.1632 36.3352 22.9897 36.3063C23.0186 35.4675 23.7127 28.7671 23.7513 28.7671C24.0598 28.7767 24.0695 30.0108 24.0309 30.2614C23.9538 30.7628 23.2693 37.5886 23.0379 37.5789C22.8161 37.5693 22.9608 36.7209 22.9704 36.5859C23.0282 36.5955 23.0957 36.6052 23.1536 36.6052Z" fill="white"/>
<path d="M22.3574 36.4702C22.3574 36.5088 22.3574 36.5377 22.367 36.5762C22.396 36.7691 22.4345 37.7235 22.1453 37.7235C21.9332 37.7235 22.0489 36.528 22.0585 36.3931C22.1646 36.422 22.261 36.4509 22.3574 36.4702Z" fill="white"/>
<path d="M22.6374 30.5701C23.3893 30.5797 22.5217 35.3616 22.4253 35.9304C22.3288 35.9401 22.2421 35.9497 22.1457 35.9594C22.1553 35.9112 22.1746 35.8533 22.1842 35.8051C22.2903 35.1784 22.4638 30.5701 22.6374 30.5701Z" fill="white"/>
<path d="M21.63 32.1415C21.9 32.1608 21.9674 32.8549 21.9192 33.0574C21.8325 33.4141 21.1769 37.444 20.9648 37.4247C20.8298 37.4247 21.524 32.1319 21.63 32.1415Z" fill="white"/>
<path d="M20.6394 33.6358C20.8708 33.6647 20.9672 34.1757 20.9094 34.3588C20.678 35.053 20.5141 35.7568 20.3406 36.4509C20.2924 36.4509 20.2538 36.4413 20.2056 36.4413C20.1767 36.3834 20.1574 36.3352 20.1188 36.287C20.0995 36.0364 20.5141 33.6261 20.6394 33.6358Z" fill="white"/>
<path d="M20.1952 36.5088C20.1952 36.4895 20.2049 36.4702 20.2049 36.4413C20.2531 36.4413 20.2916 36.4509 20.3398 36.4509C20.2916 36.6245 20.2627 37.656 19.9831 37.6368C19.665 37.6175 20.041 36.5763 20.0699 36.4895C20.1085 36.4991 20.1567 36.5088 20.1952 36.5088Z" fill="white"/>
<path d="M19.5066 35.2263C19.603 35.1299 20.1718 34.9081 19.9211 35.3998C19.8054 35.6216 19.362 36.3061 19.4005 36.5375C19.3909 36.5375 19.3909 36.5278 19.3812 36.5278C19.2463 36.5664 19.362 36.6146 19.4005 36.605C19.0631 37.8101 19.0824 37.1063 19.1981 36.3157C19.227 36.1036 19.3427 35.3902 19.5066 35.2263Z" fill="white"/>
<path d="M34.9716 41.2618C35.0295 41.2522 35.6658 49.1096 35.6561 49.6977C35.5308 49.688 35.4151 49.6688 35.2898 49.6591C35.2705 49.582 35.2512 49.4952 35.2319 49.4085C34.8656 47.4224 35.0295 45.2918 34.9427 43.2672C35.0006 43.2093 35.0488 43.1515 35.1066 43.1033C35.068 43.084 34.9813 43.0454 34.9427 43.0261C34.962 42.7755 34.5956 41.3004 34.9716 41.2618Z" fill="white"/>
<path d="M36.3992 44.588C36.3702 45.2146 36.4859 45.8606 36.5052 46.4872C36.3992 46.439 36.3413 46.4583 36.4377 46.5547C36.457 46.5354 36.4859 46.5258 36.5052 46.5065C36.5341 47.4513 36.9391 48.8589 36.7655 49.8037C36.698 49.7941 36.6305 49.7941 36.5631 49.7844C36.4763 49.688 36.4184 49.5723 36.3799 49.447C35.8978 47.8852 36.1003 45.9859 36.1581 44.3662C36.216 44.4723 36.3028 44.5494 36.3992 44.588Z" fill="white"/>
<path d="M36.3722 42.1296C36.6518 42.1296 36.4493 44.0675 36.4397 44.1735C36.3529 44.1639 36.2662 44.1542 36.1794 44.1446C36.189 44.0578 36.1987 43.9807 36.189 43.9036C36.189 43.7011 36.0251 42.1296 36.3722 42.1296Z" fill="white"/>
<path d="M37.6793 48.6083C37.7275 48.5409 37.7661 48.4637 37.795 48.3962C37.824 48.8783 37.8529 49.4085 37.824 49.8906C37.7372 49.8809 37.6408 49.8713 37.554 49.8617C37.5154 49.8038 37.4865 49.7363 37.4672 49.6592C37.3612 49.2254 37.3805 48.9168 37.3805 48.4637C37.4576 48.5216 37.554 48.5698 37.6793 48.6083ZM37.554 49.0422C37.5251 49.0229 37.5058 49.0133 37.4769 48.994C37.4576 49.0229 37.448 49.0422 37.4287 49.0711C37.4769 49.0615 37.5154 49.0518 37.554 49.0422Z" fill="white"/>
<path d="M37.5749 43.6141C37.8255 43.5948 37.7677 47.268 37.7773 47.7115C37.652 47.7115 37.5267 47.7019 37.411 47.7308C37.4592 46.9113 37.4303 46.1015 37.4785 45.2916C37.4978 45.3013 37.5074 45.3013 37.5267 45.3109C37.517 45.1663 37.517 45.0313 37.5074 44.8867H37.4978C37.5074 44.6842 37.1989 43.643 37.5749 43.6141ZM37.4978 47.3837C37.5652 47.3933 37.6231 47.403 37.6906 47.4126C37.6424 47.3644 37.5749 47.3548 37.4978 47.3837Z" fill="white"/>
<path d="M38.9569 44.6651C39.2365 44.6362 39.1786 48.2804 39.1786 48.6468C39.1304 48.6082 39.0629 48.5793 38.9858 48.56C38.9569 48.4733 38.928 48.3961 38.8605 48.3383C38.8508 48.3286 38.8412 48.319 38.8219 48.319C38.8316 48.3286 38.8412 48.3383 38.8605 48.3383C38.928 48.3961 38.9569 48.4829 38.9858 48.56C38.9473 48.6757 38.8798 48.7625 38.7737 48.83C38.7834 48.4443 38.8316 44.6844 38.9569 44.6651Z" fill="white"/>
<path d="M39.1887 49.0228C39.208 49.3217 39.2272 49.717 39.1887 50.0158C39.0633 50.0062 38.938 49.9966 38.8127 49.9869C38.803 49.9194 38.7838 49.8519 38.7741 49.7941C38.697 49.5531 38.7163 49.3699 38.7548 49.1289C38.9091 49.071 39.0151 49.0421 39.1887 49.0228Z" fill="white"/>
<path d="M40.0125 47.3356C40.0221 47.1621 39.8871 46.0437 40.1764 46.0244C40.2728 46.0148 40.4078 49.7362 40.3788 50.0543C40.2535 50.0543 40.1185 50.0447 39.9932 50.0447C39.9836 50.0061 39.9643 49.9676 39.9546 49.929C39.6461 49.3216 39.9546 48.0201 40.0125 47.3356Z" fill="white"/>
<path d="M41.4996 46.8152C41.8177 47.3069 41.7984 49.4954 41.7888 50.0738C41.6635 50.0738 41.5285 50.0738 41.3646 50.0738C41.355 50.0449 41.3357 50.016 41.3164 49.9967C41.0368 49.6111 41.355 48.5602 41.3453 48.0975C41.3357 47.9239 41.0947 46.2078 41.4996 46.8152Z" fill="white"/>
<path d="M42.8283 48.049C42.9633 48.2322 42.8958 49.794 42.8283 50.0158C42.6741 50.035 42.5295 50.0543 42.3752 50.064C42.3848 50.035 42.3945 50.0061 42.4041 49.9772C42.4716 49.6398 42.6162 47.7694 42.8283 48.049Z" fill="white"/>
<path d="M44.1419 48.7527C44.3058 48.9552 44.1226 49.5433 44.1515 49.8036C44.0358 49.8229 43.9201 49.8422 43.8045 49.8614C43.8141 49.8422 43.8237 49.8325 43.8237 49.8132C43.8816 49.7072 43.8527 48.396 44.1419 48.7527Z" fill="white"/>
<path d="M34.0782 41.8787C34.2903 41.8787 34.1746 42.9874 34.1938 43.1224C34.0974 43.1416 34.001 43.1513 33.9046 43.1706C34.001 43.1513 34.0974 43.1416 34.1938 43.132C34.4156 45.118 34.5024 47.5572 34.4638 49.5625C34.377 49.5529 34.2903 49.5336 34.2035 49.5239C34.1456 49.4468 34.0974 49.3504 34.0782 49.254C33.8661 48.6273 33.5768 41.869 34.0782 41.8787Z" fill="white"/>
<path d="M33.0391 42.9009C32.9619 42.9491 32.9137 43.0069 32.8752 43.0648C32.9137 42.7756 32.9716 42.5827 33.0391 42.9009Z" fill="white"/>
<path d="M32.8538 45.4843C32.8634 44.954 32.7381 44.3659 32.7863 43.8453C32.7959 43.7874 32.8152 43.4886 32.8441 43.2186C32.9213 43.2283 32.9984 43.2379 33.0659 43.2283C33.0755 45.2529 32.9502 47.316 33.0177 49.3503C32.8731 49.331 32.7188 49.3021 32.5645 49.2828C32.5645 49.2153 32.5742 49.1575 32.5838 49.09C32.7477 47.8945 32.8345 46.6701 32.8538 45.4843Z" fill="white"/>
<path d="M32.8633 43.0647C32.8536 43.1129 32.8536 43.1611 32.844 43.2093C32.8247 43.2093 32.8151 43.2093 32.7958 43.1997C32.8151 43.1515 32.8344 43.1033 32.8633 43.0647Z" fill="white"/>
<path d="M31.7032 43.2382C32.0021 43.2575 31.6357 45.1567 31.6261 45.2435C31.5393 45.2532 31.4525 45.2724 31.3658 45.2821C31.3754 45.2146 31.3754 45.1567 31.3851 45.0893C31.4043 44.9157 31.3851 43.2189 31.7032 43.2382Z" fill="white"/>
<path d="M31.218 47.2488C31.4012 47.1427 31.4976 46.9885 31.5265 46.786C31.5555 47.5476 31.5265 48.3189 31.5169 49.0806C31.3723 49.0516 31.2277 49.0324 31.0734 49.0034C31.0831 48.907 31.0927 48.8203 31.1023 48.7238C31.1313 48.2225 31.1602 47.7405 31.218 47.2488ZM31.3626 48.2611C31.4012 48.2225 31.3916 48.2129 31.3337 48.2129C31.2952 48.2418 31.3048 48.2611 31.3626 48.2611Z" fill="white"/>
<path d="M31.3608 45.282C31.4476 45.2723 31.5343 45.253 31.6211 45.2434C31.5632 45.629 31.5825 46.0243 31.5247 46.41C31.4765 46.3039 31.4379 46.2075 31.3319 46.1304C31.3704 45.8411 31.3319 45.5616 31.3608 45.282Z" fill="white"/>
<path d="M30.199 47.162C30.3051 47.1716 30.4111 47.1813 30.5172 47.1909C30.5365 47.7501 30.4304 48.3189 30.4111 48.8781C30.2665 48.8492 30.1219 48.8299 29.9773 48.8009C29.9869 48.7431 29.9966 48.6756 30.0062 48.6178C30.0737 48.155 30.2087 47.6248 30.199 47.162Z" fill="white"/>
<path d="M30.5448 43.8745C30.863 43.8649 30.5641 46.0245 30.5641 46.198C30.5063 46.2462 30.4581 46.2944 30.4002 46.3523C30.3134 46.4487 30.3424 46.5162 30.5255 46.5258C30.487 46.6608 30.4966 46.7668 30.4966 46.9114C30.4677 46.9211 30.4581 46.95 30.4677 46.9789C30.3809 46.9789 30.2845 46.9789 30.1978 46.9886C30.1978 46.6415 30.3134 43.8842 30.5448 43.8745Z" fill="white"/>
<path d="M29.1897 44.6458C29.4597 44.6555 29.2187 45.9474 29.1897 46.0534C29.103 46.0245 29.0066 46.0341 28.9198 46.0631C28.9584 45.8895 28.8619 44.6266 29.1897 44.6458Z" fill="white"/>
<path d="M28.8819 46.3906C28.9591 46.4388 29.0458 46.4774 29.123 46.5256C29.2194 47.2005 29.0748 47.9525 29.0844 48.6273C28.9494 48.5984 28.8241 48.5791 28.6891 48.5502C28.7084 48.2995 28.7373 48.0585 28.7759 47.8175C28.8434 47.3451 28.8241 46.8534 28.8819 46.3906Z" fill="white"/>
<path d="M27.7899 45.5906C27.9827 45.5906 27.8188 48.0105 27.7995 48.3768C27.6935 48.3576 27.5778 48.3286 27.4621 48.3094C27.4717 48.2708 27.4717 48.2419 27.4814 48.2033C27.5392 47.8755 27.4717 45.581 27.7899 45.5906Z" fill="white"/>
<path d="M26.6182 45.9184C27.0038 45.8798 26.6182 47.8466 26.7049 48.1551C26.5989 48.1358 26.5025 48.1165 26.3964 48.0973C26.4061 48.0298 26.4061 47.9719 26.4157 47.9044C26.4157 47.6538 26.3964 45.9473 26.6182 45.9184Z" fill="white"/>
<path d="M25.6719 47.972C25.5851 47.9527 25.508 47.9431 25.4212 47.9238C25.4116 47.8949 25.4212 47.866 25.4309 47.837C25.7683 46.3909 25.508 47.2297 25.6719 47.972Z" fill="white"/>
<path d="M32.2116 41.069C32.3851 41.3293 30.4666 42.5537 30.1484 42.7176C30.0038 42.6791 29.9267 42.708 29.9074 42.8141C29.917 42.8237 29.917 42.8333 29.9267 42.843C29.4253 43.1226 26.2053 44.694 26.2246 44.7615C24.4699 45.6292 22.7538 46.5933 20.9799 47.4031C20.7967 47.3839 20.6039 47.3646 20.4207 47.3549C20.7292 47.191 21.0474 47.0464 21.3752 46.9211C22.7056 46.2944 32.1441 40.9726 32.2116 41.069Z" fill="white"/>
<path d="M30.0673 40.7026C30.3854 41.2618 19.7032 46.5161 18.5945 47.1428C18.4017 47.1139 18.2089 47.0946 18.0161 47.0657C18.0932 47.0271 18.1703 46.9885 18.2475 46.95C19.4815 46.2751 30.0094 40.5966 30.0673 40.7026Z" fill="white"/>
<path d="M25.6797 41.8693C25.6604 41.8789 25.6411 41.8885 25.6218 41.9078C25.5929 41.9078 25.5736 41.9078 25.5544 41.9078C25.5833 41.8885 25.6218 41.8789 25.6508 41.8596C25.6604 41.8596 25.67 41.8596 25.6797 41.8693Z" fill="white"/>
<path d="M18.7087 44.6746C19.9331 44.26 27.9833 40.1433 28.0508 40.2687C27.9833 40.4519 27.8676 40.5965 27.6941 40.7122C27.482 40.8857 26.701 41.3099 25.6405 41.8498C25.6309 41.8401 25.6213 41.8401 25.602 41.8401C25.5345 41.8691 25.5152 41.898 25.5441 41.898C22.2373 43.5659 16.3467 46.2461 16.1924 45.9376C16.096 45.7447 18.5448 44.7324 18.7087 44.6746Z" fill="white"/>
<path d="M21.3597 42.0813C21.3886 42.1873 21.3307 42.2934 21.244 42.4091C21.215 42.4477 21.215 42.4766 21.215 42.5055C20.627 42.7465 15.3051 45.205 15.1413 44.8C15.1123 44.7229 20.6077 42.4284 21.3597 42.0813Z" fill="white"/>
<path d="M24.9542 40.2109C25.0699 40.153 25.7255 39.7481 25.793 39.8638C25.7544 40.0374 25.658 40.182 25.5037 40.288C24.53 41.2135 23.0742 41.7631 21.8595 42.2451C21.8884 42.1294 21.8305 42.0137 21.7148 41.9173C22.6115 41.5124 23.7202 41.0689 24.5204 40.4808C24.6843 40.6351 25.1374 40.4326 24.9542 40.2109Z" fill="white"/>
<path d="M16.7734 42.467C16.7831 42.467 16.7831 42.467 16.7927 42.467C16.8699 42.4188 16.9373 42.3899 17.0241 42.361C17.2844 42.361 17.5544 42.361 17.8147 42.3513C17.7472 42.2742 17.5736 42.2067 17.8243 42.1392C17.8147 42.1103 17.805 42.0814 17.7857 42.0525C18.3835 41.8404 23.445 39.4494 23.5703 39.6808C23.551 39.8254 23.4643 39.9218 23.31 39.9604C21.9314 40.7606 20.2635 41.0691 18.933 41.9175C18.7402 41.9175 18.557 41.9368 18.4992 42.1296V42.1392C18.2871 42.2356 18.075 42.3128 17.8629 42.4092C17.7279 42.467 14.6332 43.9999 14.556 43.8553C14.3343 43.3926 16.5517 42.5731 16.7734 42.467Z" fill="white"/>
<path d="M21.8281 39.0445C21.7992 39.1891 21.7221 39.3144 21.5967 39.4012C20.999 39.9411 13.5176 43.0937 13.4019 42.8526C13.3537 42.7755 21.7606 38.9095 21.8281 39.0445Z" fill="white"/>
<path d="M16.465 40.1915C17.1977 39.9216 17.9304 39.6805 18.6631 39.401C18.9042 39.3046 20.6106 38.8129 19.8972 39.1792C19.2416 39.5359 12.9846 41.9847 12.975 41.9655C12.6857 41.3291 16.33 40.2494 16.465 40.1915ZM18.9331 39.4781C19.0006 39.507 19.0198 39.4877 19.0102 39.4395C18.9331 39.4202 18.9042 39.4299 18.9331 39.4781Z" fill="white"/>
<path d="M18.2733 38.196C18.2733 38.3214 18.2348 38.4274 18.1384 38.5238C17.7238 39.0155 17.0297 39.2083 16.4416 39.4108C16.162 39.3819 15.892 39.1119 15.7378 39.4108C15.7667 39.4686 15.786 39.5361 15.8053 39.6036C15.3907 39.7193 12.0935 40.9919 11.9778 40.6448C11.9778 40.6545 18.3023 38.2442 18.2733 38.196Z" fill="white"/>
<path d="M14.7552 38.1766C14.6203 38.4851 15.3433 38.4272 14.9866 38.1187C14.9866 38.1091 14.9866 38.0994 14.9866 38.0801C15.1987 37.9934 16.5195 37.4631 16.0278 38.0416C15.6808 38.4369 11.2941 39.6805 11.2074 39.4588C11.1399 39.2756 14.4467 38.2922 14.7552 38.1766Z" fill="white"/>
<path d="M10.6397 38.1092C10.9578 37.8585 11.9508 37.8392 12.3847 37.7139C12.5871 37.656 14.3418 36.9233 14.014 37.4729C13.6669 38.0417 12.6161 37.9742 12.0665 38.0899C11.8062 38.1477 10.0516 38.5719 10.6397 38.1092Z" fill="white"/>
<path d="M11.6478 36.9042C11.4068 37.3766 9.26647 37.2898 9.45929 37.0777C9.71959 36.7981 11.8406 36.4993 11.6478 36.9042Z" fill="white"/>
<path d="M44.2891 46.8632C44.2312 46.8825 44.183 46.9018 44.1252 46.9211C44.077 46.9789 44.0191 47.0464 43.9709 47.1043C43.3346 46.5162 42.6983 45.9377 42.0524 45.3689C42.0716 45.3785 42.0909 45.3785 42.1102 45.3882C42.1681 45.3014 42.197 45.2628 42.0524 45.2628C42.0331 45.2821 42.0042 45.311 41.9945 45.3303C40.9919 44.453 39.9988 43.5564 38.9865 42.6791C39.1119 42.6791 39.2468 42.6694 39.3722 42.6405C40.8858 44.1541 42.6597 45.4653 44.2891 46.8632Z" fill="white"/>
<path d="M47.1836 49.3505C47.039 49.3794 46.8847 49.4083 46.7401 49.4276C46.6437 49.3601 46.5473 49.2927 46.4509 49.2252C45.8821 48.7913 45.3711 48.3478 44.8312 47.8754C44.9758 47.8176 45.1204 47.7597 45.265 47.6923C45.911 48.2322 46.5569 48.7817 47.1836 49.3505Z" fill="white"/>
<path d="M38.9023 42.226C38.8156 42.2742 38.7192 42.3513 38.642 42.4284C38.3046 42.2163 37.9768 41.9656 37.6779 41.6957C37.6876 41.5511 37.5912 41.4643 37.3887 41.4354C37.3212 41.3775 36.9645 41.069 37.0416 40.963C37.167 40.7798 38.7577 42.1295 38.9023 42.226Z" fill="white"/>
<path d="M44.2109 47.3259C44.1627 47.2873 44.1145 47.2391 44.0663 47.2006C44.1435 47.2198 44.1917 47.2584 44.2109 47.3259Z" fill="white"/>
<path d="M48.1821 48.7915C47.8832 49.206 45.7044 47.2393 45.5019 47.0657C45.5501 46.9982 45.6079 46.9308 45.6851 46.8633C45.5115 46.8343 45.338 46.8151 45.1741 46.7861C44.6246 46.3041 37.9434 40.6834 38.0784 40.481C38.0687 40.5099 48.3267 48.5986 48.1821 48.7915Z" fill="white"/>
<path d="M41.6036 41.1461C41.6133 41.1653 41.6229 41.175 41.6422 41.1846C41.7772 41.31 41.9122 41.4353 42.0375 41.5606C42.9437 42.3705 49.3453 47.3741 49.2489 47.5091C48.8344 48.0683 39.6658 40.0759 39.7815 39.9024C39.9068 39.7288 41.459 41.0304 41.6036 41.1461Z" fill="white"/>
<path d="M45.8602 42.6403C45.9469 42.6982 50.4011 46.005 50.295 46.1593C49.8612 46.757 45.5131 42.7271 45.2239 42.3993C45.3878 42.4764 45.5517 42.515 45.7348 42.5343C45.7734 42.5728 45.812 42.6114 45.8602 42.6403Z" fill="white"/>
<path d="M44.8711 41.8305C44.7843 41.8402 44.6976 41.8594 44.6108 41.8691C44.6108 41.898 44.6108 41.9173 44.6108 41.9462C44.4469 41.8305 41.8631 39.9409 42.0174 39.7192C42.2006 39.4299 44.7554 41.763 44.8711 41.8305Z" fill="white"/>
<path d="M45.847 41.1363C46.464 41.5991 51.352 45.1759 51.2845 45.2819C50.841 46.005 46.6182 42.0426 46.3194 41.8016C46.3194 41.7919 46.3194 41.7919 46.3194 41.7823C46.3097 41.7823 46.3001 41.7823 46.3001 41.7823C46.0109 41.5702 43.0511 39.4106 43.2536 39.131C43.4464 38.8514 45.7988 41.0978 45.847 41.1363Z" fill="white"/>
<path d="M47.6589 40.4518C48.1216 40.8663 52.2672 43.9996 52.113 44.1925C51.6888 44.7131 45.5764 38.9767 45.6054 38.9382C45.7982 38.6682 47.6203 40.4132 47.6589 40.4518Z" fill="white"/>
<path d="M53.1238 42.9491C52.9599 43.1516 52.4393 42.7563 52.2754 42.6984C51.8415 42.5249 47.3778 38.3889 47.4549 38.2829C47.5417 38.1575 53.2202 42.8238 53.1238 42.9491Z" fill="white"/>
<path d="M51.1328 39.2852C51.0075 39.2852 50.8918 39.2852 50.7665 39.2852L50.7568 39.2949C50.5833 39.1695 48.7997 37.974 48.9829 37.7137C49.1371 37.4824 50.9593 39.1117 51.1328 39.2852Z" fill="white"/>
<path d="M51.5167 39.6422C51.5456 39.6615 54.1197 41.5608 54.004 41.7054C53.8594 41.8886 53.1942 41.5608 53.0399 41.4258C52.5193 41.0016 52.0855 40.481 51.5745 40.0471C51.5359 39.9411 51.4877 39.835 51.4492 39.729C51.4685 39.6904 51.4877 39.6615 51.5167 39.6422Z" fill="white"/>
<path d="M54.7298 40.7313C54.5949 40.8952 54.0839 40.6927 53.9393 40.5867C53.6404 40.3842 50.6517 37.5498 50.7578 37.4148C50.8542 37.2895 54.7877 40.6638 54.7298 40.7313Z" fill="white"/>
<path d="M53.0422 37.4825C53.3797 37.656 55.7031 39.6324 55.7031 39.6421C55.4139 40.047 54.8065 39.4203 54.6137 39.2661C54.0931 38.8129 53.4568 38.3405 53.0133 37.8103C52.6084 37.3572 52.2324 37.0487 53.0422 37.4825Z" fill="white"/>
<path d="M55.0559 37.6367C55.3837 37.897 56.155 38.3115 56.3478 38.6779C56.7335 39.3913 55.9622 38.9768 55.6055 38.6201C55.2777 38.3019 54.3232 37.6078 54.14 37.2414C53.6869 36.3255 54.892 37.5113 55.0559 37.6367Z" fill="white"/>
<path d="M56.7678 37.6849C56.6328 37.7235 56.8449 37.9259 56.9028 37.8006C57.4041 38.1477 57.298 38.7936 56.8449 38.3694C56.6425 38.1959 55.206 36.7497 55.2156 36.5473C55.2734 36.0941 56.5364 37.4824 56.7678 37.6849Z" fill="white"/>
<path d="M57.5953 36.5668C57.5857 36.615 57.5953 36.6439 57.6339 36.6728C58.0002 37.2031 57.846 37.5598 57.4218 36.8849C57.2097 36.374 57.1422 36.0269 57.5953 36.5668Z" fill="white"/>
<path d="M58.3162 35.5256C58.3065 35.6316 58.2583 35.7473 58.4319 35.7955C58.4222 35.8244 58.4415 35.8437 58.4704 35.8437C59.2128 36.9139 58.1908 35.7859 58.0559 35.7569C57.8727 35.6991 58.1908 35.3038 58.3162 35.5256Z" fill="white"/>
<path d="M59.3076 35.4098C59.3076 35.3905 59.3173 35.3809 59.3269 35.3616C59.3558 35.3134 59.5101 35.1206 59.5486 35.1688C59.5872 35.1881 59.5583 35.3038 59.5583 35.2941L59.5679 35.3038C59.5486 35.3231 59.5294 35.352 59.5583 35.352C59.5679 35.4002 59.6065 35.2652 59.6065 35.3713C59.6065 35.3809 59.6161 35.3905 59.6258 35.3905C59.674 35.3905 59.6258 35.4195 59.6547 35.4291C59.7511 35.4291 59.4137 35.8147 59.3365 35.6798C59.3365 35.6123 59.3462 35.5737 59.3462 35.5352C59.2883 35.4677 59.4522 35.458 59.3076 35.4098Z" fill="white"/>
<path d="M24.3793 47.8562C24.4179 47.8562 24.4275 47.8369 24.389 47.808H24.3793C24.3793 47.7887 24.3793 47.7694 24.3793 47.7501C24.7264 47.7983 25.0735 47.8562 25.4206 47.9237C25.4591 48.1358 25.3434 48.3961 25.2952 48.6082C25.4013 48.6274 25.5073 48.6371 25.6134 48.6564C25.623 48.4539 25.7098 48.1743 25.6616 47.9719C25.9026 48.0104 26.1436 48.0586 26.375 48.1068C26.3557 48.3382 26.3268 48.531 26.2882 48.7721C26.4136 48.7913 26.5389 48.8106 26.6642 48.8396C26.6835 48.6178 26.7414 48.3864 26.6932 48.1647C26.9535 48.2129 27.2041 48.2611 27.4548 48.3093C27.4259 48.531 27.3873 48.7431 27.3777 48.9649C27.5126 48.9938 27.6476 49.0131 27.7826 49.042C27.773 48.8203 27.7826 48.5985 27.7922 48.3768C28.0911 48.4346 28.39 48.4925 28.6792 48.5503C28.6599 48.7721 28.6406 49.0034 28.6406 49.2155C28.7853 49.2445 28.9395 49.283 29.0841 49.312C29.0938 49.0806 29.0841 48.8588 29.0745 48.6274C29.3734 48.6949 29.6722 48.7528 29.9807 48.801C29.9325 49.0806 29.9807 49.2638 30.0193 49.5337C30.1446 49.5626 30.27 49.6012 30.4049 49.6301C30.4435 49.3891 30.4049 49.1191 30.4146 48.8685C30.6363 48.907 30.8484 48.9456 31.0605 48.9842C31.0605 49.3023 31.0991 49.5337 31.1762 49.8422C31.2051 49.8519 31.2341 49.8615 31.263 49.8711C31.2341 49.8904 31.2148 49.9097 31.2148 49.9386C31.3015 50.035 31.3979 50.035 31.504 49.9386C31.5136 49.9386 31.5329 49.9483 31.5426 49.9483C31.5715 49.6397 31.4944 49.3602 31.504 49.0613C31.8607 49.1288 32.2174 49.1866 32.5645 49.2445C32.5549 49.5144 32.632 49.9579 32.7573 50.1796C32.8344 50.1893 32.9116 50.1893 32.9887 50.1989C33.0369 49.8808 33.0273 49.6205 33.0176 49.312C33.4129 49.3698 33.7985 49.4276 34.1938 49.4855C34.2613 49.5723 34.4541 49.7747 34.4541 49.5241C34.7337 49.5626 35.0133 49.6012 35.2929 49.6301C35.3122 49.7265 35.4471 50.1314 35.5918 50.1122C35.7075 50.1025 35.6496 49.7362 35.6496 49.6687C35.9485 49.6976 36.257 49.7265 36.5559 49.7554C36.6041 49.8133 36.7294 49.929 36.7583 49.7747C37.0186 49.794 37.2789 49.8133 37.5489 49.8422C37.6356 49.9772 37.8092 50.1218 37.8188 49.8711C38.1755 49.9001 38.5033 49.9386 38.8118 49.9675C38.8408 50.0832 38.9179 50.3339 39.0721 50.3339C39.1782 50.3339 39.1782 50.0543 39.1878 49.9965C39.4481 50.0157 39.7181 50.0254 39.9784 50.0254C40.0941 50.3628 40.3351 50.411 40.364 50.035C40.6918 50.0447 41.0293 50.0447 41.357 50.0543C41.386 50.1218 41.7041 50.5556 41.7523 50.305C41.9259 50.3628 41.8777 50.3532 42.0223 50.305C42.0994 50.2086 41.7909 50.1507 41.762 50.1507C41.762 50.1218 41.7716 50.0929 41.762 50.0639C41.9644 50.0639 42.1669 50.0543 42.3693 50.0447C42.2537 50.6328 42.6875 50.4785 42.8225 49.9965C43.1503 49.9579 43.4684 49.9001 43.7962 49.8519C43.6902 50.1218 43.4877 50.4303 43.7866 50.6328C43.883 50.6231 43.9697 50.6135 44.0662 50.6038C44.0662 50.3628 44.1722 50.0447 44.1433 49.794C45.0013 49.6494 45.8594 49.5433 46.7174 49.418C46.7945 49.4662 47.4019 49.8711 47.508 49.7458C47.4501 49.5723 47.3441 49.4276 47.1705 49.3312C47.6622 49.2348 48.1539 49.0999 48.636 48.9745C48.3853 49.283 48.125 49.5819 47.8743 49.9001C48.7517 49.6397 48.7806 49.4566 49.2915 48.8203C49.4362 48.8299 49.5711 48.8395 49.7158 48.8492C49.9857 49.4855 46.4571 50.4978 46.11 50.5749C46.1582 50.4882 46.2354 50.4014 46.3318 50.3243C46.1582 50.2953 45.9847 50.2761 45.8112 50.2471C45.6858 50.3146 45.5509 50.3821 45.4255 50.4496C45.3773 50.4399 45.3291 50.4303 45.2809 50.4207L45.2713 50.411C45.3002 50.4014 45.3195 50.4014 45.3484 50.3917C45.4062 50.2664 45.3098 50.3628 45.3291 50.2857C45.3195 50.2568 45.3291 50.2278 45.3677 50.2086C45.493 49.7362 45.0592 50.0157 45.0592 50.0543C45.1074 50.1122 45.117 50.1604 45.117 50.2375C45.0013 50.2761 44.8856 50.3146 44.7699 50.3532C44.7025 50.4303 44.635 50.5171 44.5675 50.5942C44.7603 50.6135 44.876 50.681 44.8664 50.8159C40.1423 51.6933 35.3025 50.8738 30.6363 49.9193C30.8002 50.0543 29.9807 49.553 29.8072 49.7458C28.0236 49.3698 26.2497 48.8974 24.4565 48.6082C24.495 48.5214 24.4468 48.4636 24.2926 48.425C24.3793 48.2515 24.3986 48.0683 24.3793 47.8562ZM43.4491 50.7292C43.4877 50.7485 43.5166 50.7774 43.5552 50.787C43.7287 50.8256 43.6323 50.5942 43.4491 50.7292ZM40.8268 51.1341C40.8268 51.1341 40.8654 51.1148 40.8846 51.1148C40.8557 51.0473 40.8075 51.0377 40.7593 51.0762C40.7786 51.0955 40.8075 51.1148 40.8268 51.1341ZM41.3763 50.7485C40.769 50.7195 40.1616 50.7195 39.5542 50.7099C40.1616 50.7388 40.769 50.7485 41.3763 50.7485ZM38.1273 50.7388L38.1466 50.7003L38.0888 50.7099L38.1273 50.7388ZM37.5971 50.7003C37.626 50.7195 37.6935 50.7292 37.7321 50.7388C37.8574 50.6424 37.8574 50.5556 37.7224 50.4689C37.5682 50.4689 37.5296 50.546 37.5971 50.7003ZM37.4621 50.8352C37.4814 50.8352 37.5007 50.8256 37.52 50.8256C37.4525 50.787 37.4332 50.787 37.4621 50.8352ZM34.8398 50.4785C34.5698 50.2375 34.1071 50.1604 33.8468 50.5074C34.1842 50.5749 34.512 50.5556 34.8398 50.4785ZM32.1789 49.3409C32.0632 49.1866 31.9957 49.1481 31.7836 49.2445C31.9186 49.283 32.0535 49.312 32.1789 49.3409Z" fill="white"/>
<path d="M-3.37306 50.816C-3.38271 50.8353 -3.40199 50.8642 -3.43091 50.8835C-2.70784 51.8476 -2.59214 50.9413 -2.68855 50.8931C-2.75604 50.8642 -2.82353 50.8353 -2.89102 50.7967C-3.04527 50.7967 -3.19952 50.8063 -3.36342 50.8063C-1.19421 49.8422 2.3151 48.7046 2.7393 48.5696C2.77786 48.7528 2.9032 48.801 3.1153 48.7239C3.44309 48.666 3.48166 48.5022 3.45273 48.3286C7.13557 47.1428 11.6668 47.0078 15.5521 46.9789C15.6292 47.0946 15.6967 47.2006 15.7642 47.3163C15.9185 47.3163 16.0631 47.3163 16.2173 47.326C16.1306 47.2103 16.0534 47.0946 15.9763 46.9789C16.6512 46.9789 17.3357 46.9789 18.0106 47.0656C17.8081 47.1621 17.6153 47.2681 17.4225 47.3838C17.6153 47.3934 17.8081 47.4127 17.9913 47.432C18.1937 47.3452 18.3866 47.2488 18.5794 47.1428C19.1868 47.2295 19.7941 47.2874 20.4015 47.3452C20.2183 47.4513 20.0255 47.5573 19.8327 47.6537C20.0062 47.6827 20.1894 47.702 20.363 47.7309C20.5558 47.6152 20.7486 47.4899 20.9607 47.3934C21.9923 47.4899 23.0239 47.6248 24.0554 47.7116C23.9976 47.9333 24.0844 48.1744 24.0458 48.425C24.0651 48.425 24.094 48.4347 24.1133 48.4347C24.0458 48.4636 24.0072 48.5022 23.9976 48.56C18.9939 47.9044 14.453 47.4995 9.42048 48.0683C6.68245 48.3768 4.10831 48.9649 1.50526 49.8712C0.80147 50.1122 -4.76136 52.4742 -5.06023 51.9729C-5.20484 51.7319 -4.45285 51.298 -3.37306 50.816ZM23.2456 48.2997C23.342 48.3286 23.4481 48.3479 23.5541 48.3575C23.583 48.319 23.5541 48.0008 23.5155 47.9623C23.5155 47.9526 23.5155 47.943 23.5155 47.943C23.5059 47.943 23.4963 47.943 23.4866 47.9526C23.342 47.8851 23.1878 48.0201 23.1974 48.1647C23.207 48.2226 23.2167 48.2515 23.2456 48.2997ZM22.8985 47.8176C22.9178 47.8369 23.101 47.808 22.831 47.7309H22.8214C22.8503 47.7598 22.8696 47.7887 22.8985 47.8176ZM8.0611 47.9044L8.05146 47.9141C7.82972 47.3838 7.94541 48.4829 8.0611 47.9044Z" fill="white"/>
<path d="M16.2227 47.326C16.0684 47.326 15.9238 47.3163 15.7695 47.3163C15.702 47.2006 15.6346 47.0849 15.5574 46.9789C15.702 46.9789 15.837 46.9789 15.9816 46.9789C16.0588 47.0946 16.1359 47.2103 16.2227 47.326Z" fill="white"/>
<path d="M49.0887 48.8684C49.1658 48.8491 49.2333 48.8395 49.3008 48.8298C48.7995 49.4661 48.7609 49.6493 47.8836 49.9096C48.1246 49.5915 48.3945 49.2926 48.6452 48.9841C48.7995 48.9455 48.9441 48.907 49.0887 48.8684Z" fill="white"/>
<path d="M41.3906 50.7485C40.7832 50.7485 40.1759 50.7389 39.5685 50.71C40.0602 50.71 40.5519 50.7196 41.0436 50.7292C41.1689 50.7389 41.2846 50.7485 41.3906 50.7485Z" fill="white"/>
<path d="M24.0656 47.7212C24.1717 47.7308 24.2777 47.7405 24.3838 47.7598C24.3838 47.779 24.3742 47.7983 24.3838 47.8176C24.3356 47.8176 24.3356 47.8369 24.3645 47.8658C24.3742 47.8658 24.3742 47.8658 24.3838 47.8562C24.4031 48.0586 24.3838 48.2514 24.297 48.4443C24.2199 48.4346 24.1331 48.4346 24.056 48.425C24.0946 48.184 24.0078 47.9429 24.0656 47.7212Z" fill="white"/>
<path d="M35.6022 50.1411C35.4576 50.1507 35.3226 49.7458 35.3033 49.6591C35.4286 49.6783 35.5443 49.688 35.6697 49.6976C35.66 49.7651 35.7179 50.1315 35.6022 50.1411Z" fill="white"/>
<path d="M36.7117 49.8807C36.6538 49.8614 36.6056 49.8325 36.5671 49.7843C36.6346 49.7939 36.702 49.7939 36.7695 49.8036C36.7599 49.8518 36.7406 49.8807 36.7117 49.8807Z" fill="white"/>
<path d="M37.5465 49.8616C37.6332 49.8712 37.7296 49.8809 37.8164 49.8905C37.8164 50.1508 37.6332 49.9965 37.5465 49.8616Z" fill="white"/>
<path d="M39.0835 50.3532C38.9293 50.3532 38.8521 50.1025 38.8232 49.9868C38.9486 49.9965 39.0739 50.0061 39.1992 50.0157C39.1896 50.0736 39.1896 50.3532 39.0835 50.3532Z" fill="white"/>
<path d="M39.9776 50.0446C40.103 50.0542 40.2379 50.0542 40.3633 50.0542C40.3344 50.4302 40.0933 50.382 39.9776 50.0446Z" fill="white"/>
<path d="M41.7812 50.0737C41.7812 50.1027 41.7812 50.1316 41.7812 50.1605C41.5499 50.1219 41.5402 50.2473 41.762 50.3244C41.7041 50.5751 41.386 50.1509 41.3667 50.0737C41.5209 50.0834 41.6656 50.0834 41.7812 50.0737Z" fill="white"/>
<path d="M42.8477 50.0159C42.7127 50.4979 42.2788 50.6522 42.3945 50.0641C42.5488 50.0448 42.6934 50.0352 42.8477 50.0159Z" fill="white"/>
<path d="M44.1513 49.8036C44.1802 50.0543 44.0741 50.3724 44.0741 50.6134C43.9874 50.6231 43.8909 50.6327 43.7945 50.6423C43.4957 50.4399 43.6885 50.1314 43.8042 49.8614C43.9199 49.8422 44.0356 49.8229 44.1513 49.8036Z" fill="white"/>
<path d="M45.3679 50.2279C45.3293 50.2472 45.3197 50.2665 45.3293 50.305C45.3197 50.3822 45.4065 50.2858 45.3486 50.4111C45.3197 50.4207 45.3004 50.4207 45.2715 50.4304C45.2233 50.3725 45.1654 50.3243 45.1172 50.2665V50.2568C45.1269 50.1894 45.1172 50.1411 45.0594 50.0833C45.0594 50.0351 45.4932 49.7652 45.3679 50.2279Z" fill="white"/>
<path d="M34.4609 49.582C34.432 49.8038 34.2392 49.5627 34.2006 49.5049C34.2874 49.5145 34.3742 49.5338 34.4609 49.5434C34.4609 49.5627 34.4609 49.5724 34.4609 49.582Z" fill="white"/>
<path d="M33.0225 49.3697C33.061 49.659 33.0417 49.9193 32.9935 50.2181C32.9164 50.2085 32.8393 50.2085 32.7621 50.1988C32.6368 49.9771 32.5597 49.524 32.5693 49.2637C32.7236 49.2926 32.8682 49.3119 33.0225 49.3312C33.0225 49.3504 33.0225 49.3601 33.0225 49.3697Z" fill="white"/>
<path d="M31.5135 49.1289C31.5039 49.4181 31.581 49.6784 31.5521 49.9676C31.5424 49.9676 31.5231 49.958 31.5135 49.958C31.6292 49.823 31.3014 49.8616 31.2725 49.8905C31.2436 49.8809 31.2146 49.8712 31.1857 49.8616C31.1182 49.5531 31.07 49.3217 31.07 49.0035C31.2146 49.0325 31.3689 49.0614 31.5135 49.0807C31.5135 49.1 31.5135 49.1192 31.5135 49.1289Z" fill="white"/>
<path d="M30.4271 48.8879V48.8976C30.4271 49.1386 30.456 49.4085 30.4174 49.6399C30.2921 49.6013 30.1668 49.5724 30.0318 49.5435C29.9932 49.2736 29.945 49.0904 29.9932 48.8108C30.1379 48.8301 30.2825 48.859 30.4271 48.8879Z" fill="white"/>
<path d="M29.0904 48.6274C29.0904 48.6563 29.0904 48.6853 29.0904 48.7142C29.1001 48.9166 29.1001 49.1095 29.0904 49.3119C28.9458 49.283 28.8012 49.2444 28.6469 49.2155C28.6566 48.9938 28.6662 48.7624 28.6855 48.5503C28.8205 48.5792 28.9555 48.5985 29.0904 48.6274Z" fill="white"/>
<path d="M27.7969 48.3673C27.7969 48.4541 27.7872 48.5312 27.7776 48.6083C27.7776 48.7529 27.7776 48.8879 27.7776 49.0325C27.6426 49.0036 27.5076 48.9843 27.3727 48.9554C27.3823 48.7336 27.4209 48.5215 27.4498 48.2998C27.5751 48.3287 27.6812 48.348 27.7969 48.3673Z" fill="white"/>
<path d="M26.6995 48.155C26.7091 48.1839 26.7188 48.2032 26.7188 48.2321C26.767 48.4153 26.6899 48.6371 26.6706 48.8299C26.5452 48.8106 26.4199 48.7913 26.2946 48.7624C26.3331 48.531 26.3621 48.3189 26.3813 48.0972C26.497 48.1164 26.5934 48.1357 26.6995 48.155Z" fill="white"/>
<path d="M25.4234 47.9238C25.5102 47.9431 25.5873 47.9528 25.6741 47.972C25.6741 47.9817 25.6741 47.9817 25.6741 47.9913C25.7223 48.1841 25.6259 48.4637 25.6162 48.6565C25.5102 48.6373 25.4041 48.6276 25.2981 48.6083C25.3463 48.4059 25.4523 48.1359 25.4234 47.9238Z" fill="white"/>
<path d="M23.4953 47.9526C23.3314 47.9815 23.3217 48.0682 23.341 48.1647C23.5049 48.1357 23.5145 48.049 23.5242 47.9718C23.5627 48.0104 23.582 48.3189 23.5627 48.3671C23.4567 48.3575 23.3603 48.3382 23.2542 48.3093C23.1964 48.2032 23.206 48.1357 23.2542 48.0297C23.2928 47.9429 23.4181 47.914 23.4953 47.9526Z" fill="white"/>
<path d="M20.9727 47.4031C20.963 47.4031 20.963 47.4031 20.9534 47.4127C20.7509 47.5091 20.5581 47.6248 20.3749 47.7405C20.2014 47.7116 20.0182 47.6827 19.8447 47.6634C20.0375 47.567 20.2207 47.4609 20.4135 47.3549C20.5967 47.3645 20.7895 47.3838 20.9727 47.4031Z" fill="white"/>
<path d="M18.5938 47.1428C18.4009 47.2489 18.2081 47.3453 18.0057 47.432C17.8128 47.4127 17.62 47.4031 17.4368 47.3838C17.6297 47.2681 17.8225 47.1621 18.0249 47.0657C18.2081 47.085 18.4009 47.1139 18.5938 47.1428Z" fill="white"/>
<path d="M47.5195 49.7555C47.4135 49.8808 46.8061 49.4759 46.729 49.4277C46.8832 49.4084 47.0278 49.3795 47.1725 49.3506C47.3556 49.447 47.4617 49.582 47.5195 49.7555Z" fill="white"/>
<path d="M13.4058 44.1637C13.4251 44.0673 3.32139 43.9612 3.00324 43.9902C2.91647 43.8263 2.83934 43.6527 2.65616 43.537C3.63954 43.431 4.62292 43.3249 5.61594 43.2767C5.97265 43.2575 13.6179 43.3346 13.4058 44.1637Z" fill="white"/>
<path d="M2.01687 43.6046C1.97831 43.7203 1.97831 43.836 1.97831 43.9613C2.02651 43.9999 2.06508 44.0288 2.11328 44.0674C1.98795 44.077 1.86261 44.0867 1.73728 44.1059C1.75656 44.0674 1.77585 44.0192 1.80477 43.9613C1.58303 43.971 1.40949 44.0192 1.31308 44.1541C-0.219827 44.318 -15.1055 46.574 -15.0283 45.2243C-15.0765 45.957 0.348988 43.8071 2.01687 43.6046Z" fill="white"/>
<path d="M34.6529 53.1588C34.6143 53.101 34.5661 53.0624 34.5179 53.0142C35.4916 52.7732 36.6968 52.8985 37.6994 52.86C37.7091 53.0624 37.8055 53.1492 37.9983 53.1299C38.2008 53.0239 37.9694 52.8696 37.873 52.86C38.625 52.8696 39.3769 52.9178 40.1289 52.9275C39.859 53.2745 41.0159 52.9853 41.0063 52.9853C41.1027 52.8696 40.987 52.9275 40.9388 52.9467C40.8134 52.9371 40.6881 52.9275 40.5628 52.9178C43.0309 52.725 51.1485 53.1106 51.3799 49.7459C51.5149 49.7749 51.6499 49.7459 51.7848 49.6495C52.72 53.6505 41.4498 53.2938 39.2131 53.2745C39.0588 53.1203 38.8274 53.0046 38.7503 53.2745C38.3936 53.2842 34.2576 53.5734 34.3155 53.1203C34.4311 53.1203 34.5372 53.1299 34.6529 53.1588ZM40.0807 53.1396C40.1289 53.1106 40.1193 53.0817 40.0615 53.0721C40.0518 53.0817 40.0422 53.101 40.0229 53.1106C40.0518 53.1203 40.0711 53.1299 40.0807 53.1396Z" fill="white"/>
<path d="M53.5178 48.454C53.0936 48.7336 51.6764 46.0823 51.6185 46.1498C51.6378 46.1401 51.6668 46.1401 51.6957 46.1401C52.197 46.1594 54.0095 48.1262 53.5178 48.454Z" fill="white"/>
<path d="M51.6016 46.1498C51.5726 46.1787 51.5534 46.2076 51.5244 46.2269C51.5437 46.1883 51.563 46.1594 51.6016 46.1498Z" fill="white"/>
<path d="M17.125 51.2596C16.8936 51.2596 16.749 51.2596 16.7201 51.2693C16.8647 51.2307 16.9997 51.2307 17.125 51.2596Z" fill="white"/>
<path d="M8.90334 52.3874C8.90334 52.4741 8.90334 52.5705 8.90334 52.6573C9.15401 52.532 9.16365 52.4934 8.95155 52.3777C10.8701 52.0017 12.8561 51.6546 14.8036 51.4425C14.765 51.4908 14.7458 51.5486 14.7458 51.6064C14.8614 51.5968 14.9771 51.5775 15.0928 51.5679C15.1025 51.5197 15.141 51.4522 15.0928 51.4136C15.5749 51.3654 16.0473 51.3269 16.5293 51.2883C16.6354 51.404 17.5802 51.915 17.4934 51.4425C17.3874 51.3558 17.2717 51.2979 17.1464 51.269C19.1806 51.2594 28.0985 51.3365 27.8382 52.3584C27.8574 52.2909 17.8309 51.7221 17.3392 51.7414C13.5214 51.9149 9.80959 52.6669 6.05926 53.3129C6.00142 53.1586 4.95055 53.2647 5.50009 53.4093C4.81558 53.525 -3.50456 55.164 -3.61061 54.4312C-3.61061 54.4698 7.95853 52.5705 8.90334 52.3874Z" fill="white"/>
<path d="M19.3398 49.4277C19.3398 49.4374 19.3302 49.447 19.3302 49.4567C19.1374 49.5531 19.0603 49.6013 19.0988 49.6398C17.6816 49.5916 4.39637 50.9799 4.36745 50.8642C4.29032 50.6329 17.5852 49.3988 19.3398 49.4277Z" fill="white"/>
<path d="M31.081 51.7028C31.0714 51.7221 26.4437 50.5459 25.9038 50.4302C25.9231 50.411 25.9424 50.382 25.9616 50.3628C25.9424 50.3049 25.9231 50.2663 25.8942 50.2278C28.5647 50.6713 31.216 51.2401 31.081 51.7028Z" fill="white"/>
<path d="M25.8984 50.2278C25.7056 50.1988 25.5128 50.1603 25.32 50.1313L25.3103 50.1217C25.3875 50.1892 25.7345 50.0253 25.8984 50.2278Z" fill="white"/>
<path d="M25.3105 50.1314C25.4069 50.2085 25.513 50.2857 25.6094 50.3628C23.9608 49.9868 22.235 49.8325 20.5575 49.7169C20.5961 49.6397 20.6346 49.5626 20.6732 49.4855C20.8178 49.4951 22.987 49.7651 25.3105 50.1314Z" fill="white"/>
<path d="M14.105 45.311C14.105 45.3399 10.9717 45.2628 10.6535 45.2724C10.7788 45.176 10.9138 45.1181 11.0874 45.1085C11.1066 45.1085 11.1356 45.1085 11.1645 45.1085C11.1356 45.1085 11.1163 45.1085 11.0874 45.1085C10.9235 45.1181 10.7788 45.1856 10.6535 45.2724C7.12493 45.4267 3.71203 46.1401 0.241293 46.786C-1.37839 47.0849 -3.01735 47.2874 -4.65631 47.4705C-5.42758 47.5573 -6.41096 47.5091 -7.3847 47.4898C-4.22246 47.2006 -1.04095 46.8246 -0.250393 46.6703C0.154527 46.5932 14.2014 44.0191 14.105 45.311Z" fill="white"/>
<path d="M10.0492 46.7571C10.0396 46.7474 10.0299 46.7474 10.0203 46.7378C10.0396 46.7378 10.0588 46.7281 10.0781 46.7281C10.0685 46.7378 10.0685 46.7474 10.0492 46.7571Z" fill="white"/>
<path d="M11.8945 46.5162C11.8752 46.4198 11.1907 46.5162 10.0628 46.7379C10.0724 46.7186 10.0627 46.709 10.0242 46.6897C10.0145 46.6994 10.0049 46.7186 9.98562 46.7283C9.99526 46.7283 10.0049 46.7379 10.0049 46.7379C4.77951 47.7406 -9.66263 51.2788 -11.5523 51.0474C-11.5715 51.0474 -11.6294 51.0378 -11.6969 51.0185C-9.7012 51.0281 -2.50905 49.2638 -2.027 49.1192C-1.31357 48.9071 11.7499 45.6389 11.8945 46.5162Z" fill="white"/>
<path d="M-11.12 46.8051C-11.0429 46.8051 -10.9754 46.8051 -10.8983 46.8051C-10.8597 46.8244 -10.8115 46.8244 -10.7729 46.8051C-9.62567 46.7569 1.44214 45.4554 1.40358 45.3397C1.55783 45.8314 -5.01729 46.6413 -5.23903 46.6605C-5.24867 46.622 -5.25831 46.5834 -5.31616 46.5448H-5.3258V46.5352C-5.46078 46.5352 -5.58611 46.5545 -5.72108 46.5834C-5.72108 46.5834 -5.72108 46.5834 -5.72108 46.5738C-5.80785 46.5738 -5.88498 46.5738 -5.97175 46.5738C-5.96211 46.6027 -5.95246 46.6413 -5.94282 46.6702C-5.94282 46.6798 -5.94282 46.6895 -5.95247 46.6991C-7.68784 46.8244 -9.44249 46.969 -11.1779 46.9594C-11.1779 46.9401 -11.1682 46.9112 -11.1682 46.8919C-11.12 46.8726 -11.0911 46.8341 -11.12 46.8051Z" fill="white"/>
<path d="M-0.638827 53.0528C-0.0700111 53.0335 9.47452 51.5488 9.47452 51.5681C9.63842 52.1272 -0.12786 53.2359 -0.793086 53.2359C-0.715959 53.1974 -0.667749 53.1299 -0.638827 53.0528Z" fill="white"/>
<path d="M45.1 51.3945C45.206 51.462 45.3217 51.4427 45.4374 51.356C47.4524 51.0764 51.9161 50.2665 50.4989 47.3743C50.5182 47.355 50.5375 47.326 50.5568 47.3068C51.0292 47.5864 51.1449 48.3769 51.0003 48.8686C50.8556 48.9554 50.8171 49.0518 50.8942 49.1675C50.1808 50.9125 47.9248 51.0957 46.3148 51.356C45.9773 51.4138 41.8221 52.1851 41.7642 51.8477C41.7449 51.6934 45.0614 51.3945 45.1 51.3945Z" fill="white"/>
<path d="M50.5625 47.297C50.5432 47.3163 50.5239 47.3452 50.5047 47.3645C50.4854 47.3163 50.4757 47.2873 50.4854 47.2681C50.495 47.2681 50.5239 47.2681 50.5625 47.297Z" fill="white"/>
<path d="M44.5216 53.8914C44.2517 53.9203 43.9817 53.9588 43.7118 53.9588C43.8949 53.9588 44.1745 53.9299 44.5312 53.8817C44.5216 53.8817 44.5216 53.8914 44.5216 53.8914Z" fill="white"/>
<path d="M44.957 53.8144C44.8028 53.8337 44.6582 53.8626 44.5232 53.8819C44.581 53.6794 44.7931 53.7565 44.957 53.8144Z" fill="white"/>
<path d="M52.338 51.2498C52.5019 51.2306 52.6369 51.1245 52.8008 51.1052C51.0751 53.5829 47.6622 53.4769 45.0013 53.8336C44.9916 53.8336 44.9723 53.824 44.9627 53.8143C45.9171 53.6697 47.1126 53.4576 47.7489 53.3708C49.3879 53.1491 51.2775 52.6092 52.338 51.2498Z" fill="white"/>
<path d="M52.905 50.9316C52.8471 50.9123 52.7796 50.9219 52.7122 50.9219C52.6832 50.893 52.6447 50.8737 52.6157 50.8448C52.8857 50.3724 52.4326 48.7141 52.3844 48.772C52.7314 48.3574 53.1653 50.4688 52.905 50.9316Z" fill="white"/>
<path d="M31.4536 54.4504C31.4633 54.5179 31.4729 54.5854 31.4922 54.6433C30.557 54.6722 22.0151 55.5784 22.0151 55.5688C21.9091 55.2796 30.2678 54.5083 31.4536 54.4504Z" fill="white"/>
<path d="M38.0959 54.2963C38.7129 54.2866 39.3203 54.2384 39.9277 54.2288C39.918 54.2288 39.918 54.2288 39.9084 54.2288C40.053 54.1998 41.4413 54.1902 41.4413 54.2673C41.4799 54.6337 32.1956 54.624 31.8389 54.6337C31.81 54.5373 31.7329 54.4698 31.5979 54.4409C33.7092 54.3445 35.8206 54.3252 37.932 54.2963C37.9705 54.3541 38.0187 54.3541 38.0959 54.2963Z" fill="white"/>
<path d="M24.2344 53.6888C24.1862 53.737 24.1572 53.7949 24.1572 53.8624C23.7909 53.9106 18.6812 54.9422 18.6233 54.7686C18.5559 54.5565 23.8487 53.737 24.2344 53.6888Z" fill="white"/>
<path d="M32.7266 53.2262C32.7362 53.4672 25.2259 53.795 24.9945 53.8143C25.0042 53.7564 24.9945 53.6793 24.9559 53.6311C25.062 53.6215 32.7169 52.8598 32.7266 53.2262Z" fill="white"/>
<path d="M55.9961 48.3478C55.8419 48.4153 55.6201 48.0104 55.5237 47.914C55.5623 47.9333 55.5912 47.9622 55.6298 47.9815C55.6587 47.7501 55.5044 47.6248 55.2923 47.5284C54.6657 46.2943 53.6148 45.7159 52.4386 45.1567C52.4868 45.0988 52.535 45.041 52.5832 44.9832C53.0749 45.176 56.6614 48.0586 55.9961 48.3478Z" fill="white"/>
<path d="M52.2617 44.8868C52.2232 44.9254 52.1942 44.9736 52.1557 45.0121C52.0593 44.9157 52.1942 44.8772 52.2617 44.8868Z" fill="white"/>
<path d="M52.582 44.9831C52.5338 45.041 52.476 45.0988 52.4374 45.1567C52.341 45.1277 52.2446 45.0795 52.1675 45.012C52.1964 44.9735 52.235 44.9253 52.2735 44.8867C52.3796 44.906 52.476 44.9349 52.582 44.9831Z" fill="white"/>
<path d="M54.293 47.7308C54.3123 47.7019 54.322 47.673 54.3316 47.644C54.3412 47.644 54.3605 47.644 54.3702 47.644C56.2983 47.9526 54.0616 51.7897 53.8592 51.6547C53.7724 51.5968 54.6497 50.1796 54.7076 49.9579C54.9583 49.042 54.6594 48.5021 54.293 47.7308Z" fill="white"/>
<path d="M58.1059 48.4634C57.971 48.4827 57.7492 47.885 57.6721 47.7693C57.6914 47.7596 57.701 47.7403 57.7203 47.7307C57.6914 47.7018 57.6625 47.7018 57.6432 47.7211C57.1611 46.7762 56.6405 46.0146 55.8018 45.3494C55.6379 45.2241 53.6518 44.2214 53.7193 44.0575C54.1724 43.0645 59.1182 48.3092 58.1059 48.4634Z" fill="white"/>
</g>
</svg>
