<svg width="26" height="21" viewBox="0 0 26 21" fill="none" xmlns="http://www.w3.org/2000/svg">
<path d="M24.0287 3.30442C23.7157 3.40059 23.3893 3.44593 23.062 3.4387C23.8382 2.82109 24.4936 2.06543 24.9954 1.20974C24.9954 0.96805 24.9954 0.860618 24.9954 0.860618L23.3573 1.55887L21.9877 2.17652C21.4738 1.64448 20.8555 1.22434 20.1716 0.94245C19.4877 0.66056 18.7528 0.523001 18.0133 0.538374C16.7411 0.464315 15.4907 0.892825 14.5313 1.73163C13.572 2.57043 12.9803 3.75243 12.8839 5.02312C12.8725 5.59454 12.945 6.16455 13.0988 6.71499C10.904 6.5551 8.76952 5.92302 6.84156 4.862C2.70592 2.79418 2.46438 1.34403 2.46438 1.34403C2.06403 2.05883 1.82743 2.85362 1.7717 3.671C1.71597 4.48838 1.84235 5.30793 2.14197 6.07046C2.56467 6.94127 3.20242 7.68993 3.99496 8.24569C3.5472 8.2508 3.10198 8.17815 2.6791 8.03089C2.33892 7.94172 2.01964 7.78657 1.73925 7.57432C1.33642 8.56795 2.14202 10.2598 3.53847 11.5489C4.22701 12.091 5.01004 12.5007 5.84795 12.7573H3.51159C3.51159 15.0131 8.23806 16.3559 8.23806 16.3559C6.87113 17.472 5.16869 18.0963 3.40423 18.1283C2.49472 18.1193 1.59089 17.9837 0.71875 17.7254C3.10566 19.7954 6.18088 20.8971 9.3392 20.8138C13.1449 20.513 16.6916 18.7686 19.2529 15.9377C21.8142 13.1069 23.1961 9.40382 23.1157 5.58709C23.5799 5.28343 24.0039 4.9225 24.3778 4.51287C24.9313 3.95021 25.4098 3.31837 25.8012 2.63305C25.2216 2.88524 24.63 3.10929 24.0287 3.30442Z" fill="white"/>
</svg>
