<svg width="50" height="50" viewBox="0 0 50 50" fill="none" xmlns="http://www.w3.org/2000/svg">
<circle cx="25" cy="25" r="25" fill="#9AA0D0"/>
<path d="M34.7884 30.1679C34.0438 28.7603 31.4581 27.234 31.3443 27.1672C31.012 26.9781 30.6653 26.878 30.3408 26.878C29.8584 26.878 29.4635 27.099 29.2243 27.501C28.8461 27.9534 28.377 28.4822 28.2632 28.5641C27.3821 29.1619 26.6924 29.094 25.9292 28.3309L21.67 24.0713C20.9117 23.313 20.842 22.6147 21.4357 21.7385C21.5187 21.6239 22.0475 21.1544 22.4999 20.7758C22.7884 20.6042 22.9864 20.349 23.0732 20.0361C23.1885 19.6196 23.1036 19.1298 22.8314 18.6525C22.7673 18.5428 21.2403 15.9567 19.8334 15.2125C19.5708 15.0734 19.2749 15 18.9783 15C18.4895 15 18.0297 15.1906 17.6841 15.5358L16.743 16.4766C15.2545 17.9647 14.7157 19.6515 15.1407 21.49C15.4952 23.0222 16.5283 24.6527 18.2118 26.3359L23.6647 31.7887C25.7954 33.9194 27.8267 35 29.7023 35C29.7023 35 29.7023 35 29.7027 35C31.0821 35 32.3681 34.4137 33.5239 33.2579L34.4647 32.3171C35.0365 31.7457 35.1663 30.8817 34.7884 30.1679Z" fill="white"/>
</svg>
