<svg width="55" height="55" viewBox="0 0 55 55" fill="none" xmlns="http://www.w3.org/2000/svg">
<rect width="55" height="55" rx="27.5" fill="#9AA0D0"/>
<path d="M28.0013 16.1666C22.0278 16.1666 17.168 20.0547 17.168 24.8333C17.168 27.9836 19.2231 30.809 22.5846 32.3451V37.8333L28.3696 33.4956C34.173 33.3396 38.8346 29.5133 38.8346 24.8333C38.8346 20.0547 33.9748 16.1666 28.0013 16.1666ZM25.293 25.9166C24.862 25.9166 24.4487 25.7454 24.1439 25.4407C23.8392 25.1359 23.668 24.7226 23.668 24.2916C23.668 23.8606 23.8392 23.4473 24.1439 23.1426C24.4487 22.8378 24.862 22.6666 25.293 22.6666C25.7239 22.6666 26.1373 22.8378 26.442 23.1426C26.7468 23.4473 26.918 23.8606 26.918 24.2916C26.918 24.7226 26.7468 25.1359 26.442 25.4407C26.1373 25.7454 25.7239 25.9166 25.293 25.9166ZM30.7096 25.9166C30.2787 25.9166 29.8653 25.7454 29.5606 25.4407C29.2558 25.1359 29.0846 24.7226 29.0846 24.2916C29.0846 23.8606 29.2558 23.4473 29.5606 23.1426C29.8653 22.8378 30.2787 22.6666 30.7096 22.6666C31.1406 22.6666 31.5539 22.8378 31.8587 23.1426C32.1634 23.4473 32.3346 23.8606 32.3346 24.2916C32.3346 24.7226 32.1634 25.1359 31.8587 25.4407C31.5539 25.7454 31.1406 25.9166 30.7096 25.9166Z" fill="white"/>
</svg>
