<svg width="40" height="40" viewBox="0 0 40 40" fill="none" xmlns="http://www.w3.org/2000/svg">
<circle cx="20" cy="20" r="20" fill="#25B8E7"/>
<path d="M25.5322 13.7409C25.5322 13.7409 26.9892 13.1727 26.8678 14.5525C26.8273 15.1206 26.4631 17.109 26.1798 19.2598L25.2085 25.631C25.2085 25.631 25.1275 26.5643 24.399 26.7266C23.6705 26.8889 22.5778 26.1585 22.3754 25.9962C22.2135 25.8744 19.34 24.0483 18.3282 23.1556C18.0449 22.9121 17.7211 22.4251 18.3687 21.857L22.6183 17.7989C23.1039 17.312 23.5896 16.1757 21.566 17.5554L15.8999 21.4106C15.8999 21.4106 15.2524 21.8164 14.0382 21.4512L11.4075 20.6396C11.4075 20.6396 10.4362 20.0309 12.0956 19.4221C16.1428 17.5148 21.1208 15.567 25.5322 13.7409Z" fill="white"/>
</svg>
