<svg width="21" height="13" viewBox="0 0 21 13" fill="none" xmlns="http://www.w3.org/2000/svg">
<path fill-rule="evenodd" clip-rule="evenodd" d="M10.1797 12.2146H11.3752C11.3752 12.2146 11.7363 12.1749 11.9207 11.9762C12.0904 11.7937 12.085 11.4511 12.085 11.4511C12.085 11.4511 12.0616 9.84698 12.8061 9.61076C13.54 9.37807 14.4824 11.1611 15.4813 11.8467C16.2367 12.3655 16.8107 12.2518 16.8107 12.2518L19.4815 12.2146C19.4815 12.2146 20.8787 12.1285 20.2163 11.03C20.162 10.9401 19.8304 10.2173 18.2304 8.73214C16.5557 7.17772 16.78 7.42915 18.7973 4.74035C20.0259 3.10285 20.5171 2.10313 20.3637 1.67495C20.2173 1.26714 19.3137 1.37493 19.3137 1.37493L16.3065 1.39367C16.3065 1.39367 16.0835 1.36326 15.9182 1.46209C15.7566 1.55902 15.6526 1.78492 15.6526 1.78492C15.6526 1.78492 15.1767 3.05207 14.5419 4.12971C13.2028 6.40364 12.6674 6.52365 12.4485 6.38246C11.9394 6.05339 12.0665 5.06046 12.0665 4.35507C12.0665 2.15146 12.4007 1.23266 11.4157 0.994813C11.0888 0.915802 10.8482 0.863671 10.0122 0.855254C8.9392 0.844122 8.03098 0.858512 7.51674 1.11048C7.17463 1.278 6.91072 1.65133 7.07145 1.67278C7.2702 1.69939 7.72037 1.79415 7.95903 2.11915C8.2672 2.53837 8.25634 3.47998 8.25634 3.47998C8.25634 3.47998 8.43337 6.07402 7.84283 6.39631C7.43746 6.61732 6.88139 6.16606 5.68755 4.1031C5.07583 3.04637 4.61398 1.87832 4.61398 1.87832C4.61398 1.87832 4.52493 1.66002 4.36609 1.54327C4.17332 1.40181 3.90397 1.35674 3.90397 1.35674L1.04629 1.37547C1.04629 1.37547 0.6173 1.38742 0.459822 1.57395C0.31972 1.73985 0.448689 2.08304 0.448689 2.08304C0.448689 2.08304 2.68596 7.31728 5.21919 9.95504C7.54199 12.3734 10.1797 12.2146 10.1797 12.2146Z" fill="white"/>
</svg>
