<svg width="40" height="40" viewBox="0 0 40 40" fill="none" xmlns="http://www.w3.org/2000/svg">
<circle cx="20" cy="20" r="20" fill="#4D76A1"/>
<path fill-rule="evenodd" clip-rule="evenodd" d="M19.1797 26.2146H20.3752C20.3752 26.2146 20.7363 26.1749 20.9207 25.9762C21.0904 25.7937 21.085 25.4511 21.085 25.4511C21.085 25.4511 21.0616 23.847 21.8061 23.6108C22.54 23.3781 23.4824 25.1611 24.4813 25.8467C25.2367 26.3655 25.8107 26.2518 25.8107 26.2518L28.4815 26.2146C28.4815 26.2146 29.8787 26.1285 29.2163 25.03C29.162 24.9401 28.8304 24.2173 27.2304 22.7321C25.5557 21.1777 25.78 21.4291 27.7973 18.7403C29.0259 17.1028 29.5171 16.1031 29.3637 15.675C29.2173 15.2671 28.3137 15.3749 28.3137 15.3749L25.3065 15.3937C25.3065 15.3937 25.0835 15.3633 24.9182 15.4621C24.7566 15.559 24.6526 15.7849 24.6526 15.7849C24.6526 15.7849 24.1767 17.0521 23.5419 18.1297C22.2028 20.4036 21.6674 20.5236 21.4485 20.3825C20.9394 20.0534 21.0665 19.0605 21.0665 18.3551C21.0665 16.1515 21.4007 15.2327 20.4157 14.9948C20.0888 14.9158 19.8482 14.8637 19.0122 14.8553C17.9392 14.8441 17.031 14.8585 16.5167 15.1105C16.1746 15.278 15.9107 15.6513 16.0715 15.6728C16.2702 15.6994 16.7204 15.7941 16.959 16.1192C17.2672 16.5384 17.2563 17.48 17.2563 17.48C17.2563 17.48 17.4334 20.074 16.8428 20.3963C16.4375 20.6173 15.8814 20.1661 14.6875 18.1031C14.0758 17.0464 13.614 15.8783 13.614 15.8783C13.614 15.8783 13.5249 15.66 13.3661 15.5433C13.1733 15.4018 12.904 15.3567 12.904 15.3567L10.0463 15.3755C10.0463 15.3755 9.6173 15.3874 9.45982 15.574C9.31972 15.7398 9.44869 16.083 9.44869 16.083C9.44869 16.083 11.686 21.3173 14.2192 23.955C16.542 26.3734 19.1797 26.2146 19.1797 26.2146Z" fill="white"/>
</svg>
