<svg width="40" height="40" viewBox="0 0 40 40" fill="none" xmlns="http://www.w3.org/2000/svg">
<circle cx="20" cy="20" r="20" fill="#25BE47"/>
<g clip-path="url(#clip0_1241_2054)">
<path d="M26.8012 15.7C24.4012 12 19.5012 10.9 15.7012 13.2C12.0012 15.5 10.8012 20.5 13.2012 24.2L13.4012 24.5L12.6012 27.5L15.6012 26.7L15.9012 26.9C17.2012 27.6 18.6012 28 20.0012 28C21.5012 28 23.0012 27.6 24.3012 26.8C28.0012 24.4 29.1012 19.5 26.8012 15.7ZM24.7012 23.4C24.3012 24 23.8012 24.4 23.1012 24.5C22.7012 24.5 22.2012 24.7 20.2012 23.9C18.5012 23.1 17.1012 21.8 16.1012 20.3C15.5012 19.6 15.2012 18.7 15.1012 17.8C15.1012 17 15.4012 16.3 15.9012 15.8C16.1012 15.6 16.3012 15.5 16.5012 15.5H17.0012C17.2012 15.5 17.4012 15.5 17.5012 15.9C17.7012 16.4 18.2012 17.6 18.2012 17.7C18.3012 17.8 18.3012 18 18.2012 18.1C18.3012 18.3 18.2012 18.5 18.1012 18.6C18.0012 18.7 17.9012 18.9 17.8012 19C17.6012 19.1 17.5012 19.3 17.6012 19.5C18.0012 20.1 18.5012 20.7 19.0012 21.2C19.6012 21.7 20.2012 22.1 20.9012 22.4C21.1012 22.5 21.3012 22.5 21.4012 22.3C21.5012 22.1 22.0012 21.6 22.2012 21.4C22.4012 21.2 22.5012 21.2 22.7012 21.3L24.3012 22.1C24.5012 22.2 24.7012 22.3 24.8012 22.4C24.9012 22.7 24.9012 23.1 24.7012 23.4Z" fill="white"/>
</g>
<defs>
<clipPath id="clip0_1241_2054">
<rect width="20" height="20" fill="white" transform="translate(10 10)"/>
</clipPath>
</defs>
</svg>
