<svg width="40" height="40" viewBox="0 0 40 40" fill="none" xmlns="http://www.w3.org/2000/svg">
<circle cx="20" cy="20" r="20" fill="#D7143A"/>
<path d="M29.2205 14.1706C28.4985 13.3124 27.1656 12.9624 24.6201 12.9624H15.3797C12.7759 12.9624 11.4204 13.3351 10.7012 14.2487C10 15.1395 10 16.4521 10 18.2688V21.7313C10 25.2507 10.832 27.0376 15.3797 27.0376H24.6201C26.8276 27.0376 28.0508 26.7287 28.8422 25.9713C29.6537 25.1947 30 23.9266 30 21.7313V18.2688C30 16.3529 29.9457 15.0326 29.2205 14.1706ZM22.8401 20.478L18.6441 22.671C18.5503 22.72 18.4477 22.7444 18.3452 22.7444C18.2292 22.7444 18.1135 22.7131 18.011 22.6511C17.8179 22.5341 17.7001 22.3249 17.7001 22.0992V17.7273C17.7001 17.5021 17.8176 17.293 18.0103 17.176C18.203 17.0589 18.4427 17.0509 18.6426 17.1548L22.8386 19.3336C23.0521 19.4444 23.1861 19.6648 23.1864 19.9053C23.1867 20.146 23.0532 20.3667 22.8401 20.478Z" fill="white"/>
</svg>
