<svg width="31" height="23" viewBox="0 0 31 23" fill="none" xmlns="http://www.w3.org/2000/svg">
<path d="M24.3343 0.048584H6.3148C4.75255 0.0556852 3.25665 0.681268 2.15447 1.78848C1.0523 2.89568 0.433578 4.39436 0.433594 5.95663V16.4569C0.433578 18.0191 1.0523 19.5178 2.15447 20.625C3.25665 21.7322 4.75255 22.3578 6.3148 22.3649H24.3343C25.899 22.3579 27.3977 21.7331 28.5041 20.6267C29.6106 19.5202 30.2353 18.0216 30.2424 16.4569V5.95663C30.2353 4.3919 29.6106 2.89324 28.5041 1.7868C27.3977 0.680347 25.899 0.0556484 24.3343 0.048584ZM12.7061 15.5438V6.86969L20.1987 11.2202L12.7061 15.5438Z" fill="white"/>
</svg>
